<svg xmlns="http://www.w3.org/2000/svg" width="234" height="234" viewBox="0 0 234 234"><g transform="translate(0.286 0.385)"><g transform="translate(0 0)"><circle cx="117" cy="117" r="117" transform="translate(-0.286 -0.385)" fill="#aadad2"/><text transform="translate(113.714 161.615)" fill="#fff" font-size="31" font-family="Avenir-Black, Avenir" font-weight="800" letter-spacing="0.15em"><tspan x="-65.565" y="0">mesero</tspan></text></g><g transform="translate(74.822 56.246)"><g transform="translate(0 0)"><path d="M110.494,188.036a29.757,29.757,0,0,0-12.759,11.893,1.752,1.752,0,1,0,3.033,1.756,26.3,26.3,0,0,1,11.263-10.5,1.752,1.752,0,0,0-1.537-3.15Z" transform="translate(-81.476 -171.009)" fill="#fff"/><path d="M82.384,127.4H78.789A36.816,36.816,0,0,0,46.881,92.7a5.259,5.259,0,1,0-9.624,0A36.816,36.816,0,0,0,5.347,127.4H1.753A1.752,1.752,0,0,0,0,129.154v1.756A13.282,13.282,0,0,0,2.239,138.3a7,7,0,0,0,5.834,3.122H76.064A7,7,0,0,0,81.9,138.3a13.289,13.289,0,0,0,2.237-7.39v-1.756A1.752,1.752,0,0,0,82.384,127.4ZM42.068,88.839a1.753,1.753,0,1,1-1.753,1.753A1.754,1.754,0,0,1,42.068,88.839Zm0,7.011A33.317,33.317,0,0,1,75.284,127.4H8.853A33.317,33.317,0,0,1,42.068,95.85Zm38.563,35.061a9.787,9.787,0,0,1-1.65,5.447,3.5,3.5,0,0,1-2.917,1.561H8.073a3.5,3.5,0,0,1-2.918-1.563,9.793,9.793,0,0,1-1.648-5.445v0H80.631Z" transform="translate(0 -85.333)" fill="#fff"/></g></g></g></svg>