<svg xmlns="http://www.w3.org/2000/svg" width="234" height="234" viewBox="0 0 234 234"><g transform="translate(0.286 0.188)"><g transform="translate(0 0)"><circle cx="117" cy="117" r="117" transform="translate(-0.286 -0.188)" fill="#aadad2"/><text transform="translate(114.714 162.812)" fill="#fff" font-size="31" font-family="Avenir-Black, Avenir" font-weight="800" letter-spacing="0.15em"><tspan x="-57.273" y="0">cocina</tspan></text></g><g transform="translate(81.452 44.878)"><path d="M109.936,214.968a1.635,1.635,0,0,0-3.27,0c0,4.293,4.735,10.188,5.275,10.847a1.636,1.636,0,0,0,2.529-2.076C112.717,221.6,109.936,217.334,109.936,214.968Z" transform="translate(-90.317 -180.635)" fill="#fff"/><path d="M315.876,213.333a1.634,1.634,0,0,0-1.635,1.635c0,2.358-2.781,6.632-4.534,8.773a1.635,1.635,0,0,0,2.529,2.074c.54-.659,5.275-6.554,5.275-10.847A1.634,1.634,0,0,0,315.876,213.333Z" transform="translate(-261.925 -180.635)" fill="#fff"/><path d="M225.635,213.333A1.634,1.634,0,0,0,224,214.968v9.809a1.635,1.635,0,0,0,3.27,0v-9.809A1.634,1.634,0,0,0,225.635,213.333Z" transform="translate(-189.667 -180.635)" fill="#fff"/><path d="M53.951,6.54a17.124,17.124,0,0,0-3.1.331,19.554,19.554,0,0,0-29.765,0,17.14,17.14,0,0,0-3.1-.331A17.977,17.977,0,0,0,9.848,40.55L9.816,65.256a6.672,6.672,0,0,0,6.67,6.678H55.455a6.678,6.678,0,0,0,6.67-6.67V40.526A17.974,17.974,0,0,0,53.951,6.54Zm4.9,58.725a3.406,3.406,0,0,1-3.4,3.4H16.486a3.4,3.4,0,0,1-3.4-3.405l.009-6.4H58.856Zm1.012-27.284a1.466,1.466,0,0,0-.244.126,1.636,1.636,0,0,0-.75,1.148,1.58,1.58,0,0,0-.018.275V55.586H13.1l.021-16.034a1.683,1.683,0,0,0-.016-.268,1.638,1.638,0,0,0-.259-.677,1.62,1.62,0,0,0-.485-.474A1.711,1.711,0,0,0,12.1,38a14.707,14.707,0,0,1,5.882-28.19c.317,0,.652.038.98.064a19.476,19.476,0,0,0-2.615,9.745,1.635,1.635,0,0,0,3.27,0,16.349,16.349,0,1,1,32.7,0,1.635,1.635,0,0,0,3.27,0,19.477,19.477,0,0,0-2.615-9.745c.328-.026.663-.064.98-.064a14.705,14.705,0,0,1,5.917,28.171Z" fill="#fff"/></g></g></svg>