<svg xmlns="http://www.w3.org/2000/svg" width="235.875" height="235.875" viewBox="0 0 235.875 235.875"><g transform="translate(0 0)"><path d="M117.938,0A117.938,117.938,0,1,1,0,117.938,117.937,117.937,0,0,1,117.938,0Z" transform="translate(0 0)" fill="#f5c6c6"/><text transform="translate(116.938 167.825)" fill="#fff" font-size="31" font-family="Avenir-Black, Avenir" font-weight="800" letter-spacing="0.15em"><tspan x="-61.287" y="0">burger</tspan></text></g><g transform="translate(83.378 62.743)"><g transform="translate(0 0)"><path d="M14.85,4.082a1.158,1.158,0,0,0-1.505.645L9.789,13.618,6.233,4.727a1.159,1.159,0,0,0-2.151.861L8.713,17.165a1.158,1.158,0,0,0,2.151,0L15.495,5.589a1.158,1.158,0,0,0-.645-1.506Z" transform="translate(0.631 0.631)" fill="#fff"/><path d="M23.1,6.315A1.158,1.158,0,1,0,23.1,4H16.158A1.158,1.158,0,0,0,15,5.158V16.735a1.158,1.158,0,0,0,1.158,1.158H23.1a1.158,1.158,0,1,0,0-2.315H17.315V12.1H23.1a1.158,1.158,0,1,0,0-2.315H17.315V6.315Z" transform="translate(2.365 0.631)" fill="#fff"/><path d="M36.577,10.946H31.946a1.158,1.158,0,0,0,0,2.315H33.1a2.315,2.315,0,0,1-2.315,2.315H29.631a2.315,2.315,0,0,1-2.315-2.315V8.631a2.315,2.315,0,0,1,2.315-2.315h1.158a2.284,2.284,0,0,1,2.17,1.532,1.158,1.158,0,0,0,2.19-.748A4.6,4.6,0,0,0,30.788,4H29.631A4.631,4.631,0,0,0,25,8.631v4.631a4.631,4.631,0,0,0,4.631,4.631h1.158a4.631,4.631,0,0,0,4.631-4.631h1.158a1.158,1.158,0,1,0,0-2.315Z" transform="translate(3.942 0.631)" fill="#fff"/><path d="M42.864,4.727a1.158,1.158,0,0,0-2.151,0L36.082,16.3a1.159,1.159,0,1,0,2.151.861l1.1-2.746h4.916l1.1,2.746a1.158,1.158,0,0,0,1.075.727,1.175,1.175,0,0,0,.431-.082,1.158,1.158,0,0,0,.645-1.505ZM40.257,12.1l1.532-3.83L43.32,12.1Z" transform="translate(5.677 0.63)" fill="#fff"/><path d="M56.262,4A1.158,1.158,0,0,0,55.1,5.158v7.9l-6-8.567A1.158,1.158,0,0,0,47,5.158V16.735a1.158,1.158,0,1,0,2.315,0V8.83l6,8.567a1.157,1.157,0,0,0,2.106-.662V5.158A1.158,1.158,0,0,0,56.262,4Z" transform="translate(7.412 0.631)" fill="#fff"/><path d="M65.989,0H3.473A3.473,3.473,0,0,0,0,3.473V19.681a3.473,3.473,0,0,0,3.473,3.473H30.1v4.631H22A17.33,17.33,0,0,0,4.682,44.108,5.763,5.763,0,0,0,3.01,54.83a11.716,11.716,0,0,0,1.621,3.01v1.2A10.432,10.432,0,0,0,15.05,69.462H54.412A10.431,10.431,0,0,0,64.831,59.042v-1.2a11.734,11.734,0,0,0,1.621-3.01,5.763,5.763,0,0,0-1.674-10.726A17.372,17.372,0,0,0,47.465,27.785h-8.1V23.154H65.989a3.473,3.473,0,0,0,3.473-3.473V3.473A3.473,3.473,0,0,0,65.989,0ZM35.409,55.569l3.721,3.722a9.675,9.675,0,0,1-4.411.909,9.9,9.9,0,0,1-4.74-1.058,12.258,12.258,0,0,0-5.68-1.257,12.261,12.261,0,0,0-5.681,1.258A9.867,9.867,0,0,1,13.892,60.2h-.149A9.146,9.146,0,0,1,6.69,56.742,9.377,9.377,0,0,1,5.9,55.569Zm28.154,0a9.369,9.369,0,0,1-.793,1.175A9.146,9.146,0,0,1,55.731,60.2h-.162a9.639,9.639,0,0,1-4.4-.906l3.721-3.724ZM45.15,62.036l-6.467-6.467H51.617Zm9.262,5.11H15.05a8.1,8.1,0,0,1-8-6.892,11.4,11.4,0,0,0,6.683,2.261h.162a12.239,12.239,0,0,0,5.673-1.256A9.89,9.89,0,0,1,24.3,60.2a9.891,9.891,0,0,1,4.74,1.058,12.262,12.262,0,0,0,5.68,1.257A12.305,12.305,0,0,0,40.4,61.263c.161-.071.335-.137.5-.206l2.612,2.616a2.315,2.315,0,0,0,3.274,0L49.4,61.058c.16.068.328.132.484.2a12.272,12.272,0,0,0,5.683,1.256h.174a11.377,11.377,0,0,0,6.672-2.261A8.1,8.1,0,0,1,54.412,67.146ZM67.146,49.781a3.473,3.473,0,0,1-2.114,3.2c-.019.008-.038.01-.056.02a3.461,3.461,0,0,1-1.3.258H5.788A3.455,3.455,0,0,1,4.487,53a.621.621,0,0,0-.06-.021,3.473,3.473,0,0,1,1.361-6.667H63.673a3.473,3.473,0,0,1,3.473,3.473ZM47.465,30.1A15.071,15.071,0,0,1,62.471,43.992H6.99A15.05,15.05,0,0,1,22,30.1h8.1v2.315H28.942a1.158,1.158,0,1,0,0,2.315H40.519a1.158,1.158,0,0,0,0-2.315H39.362V30.1ZM37.046,32.415H32.415V23.154h4.631Zm30.1-12.735a1.158,1.158,0,0,1-1.158,1.158H3.473a1.158,1.158,0,0,1-1.158-1.158V3.473A1.158,1.158,0,0,1,3.473,2.315H65.989a1.158,1.158,0,0,1,1.158,1.158Z" transform="translate(0 0)" fill="#fff"/><circle cx="1.5" cy="1.5" r="1.5" transform="translate(18.56 39.082)" fill="#fff"/><ellipse cx="1.5" cy="0.5" rx="1.5" ry="0.5" transform="translate(22.56 36.082)" fill="#fff"/><ellipse cx="0.5" cy="1.5" rx="0.5" ry="1.5" transform="translate(37.56 39.082)" fill="#fff"/><ellipse cx="1.5" cy="0.5" rx="1.5" ry="0.5" transform="translate(46.56 33.082)" fill="#fff"/><circle cx="1.5" cy="1.5" r="1.5" transform="translate(27.56 39.082)" fill="#fff"/><circle cx="0.5" cy="0.5" r="0.5" transform="translate(33.56 36.082)" fill="#fff"/><circle cx="1.5" cy="1.5" r="1.5" transform="translate(46.56 39.082)" fill="#fff"/><circle cx="1.5" cy="1.5" r="1.5" transform="translate(55.56 39.082)" fill="#fff"/><ellipse cx="1.5" cy="0.5" rx="1.5" ry="0.5" transform="translate(50.56 36.082)" fill="#fff"/><ellipse cx="1" cy="0.5" rx="1" ry="0.5" transform="translate(41.56 36.082)" fill="#fff"/><path d="M20.6,28A12.747,12.747,0,0,0,8.928,35.641a1.158,1.158,0,1,0,2.122.926A10.431,10.431,0,0,1,20.6,30.315,1.158,1.158,0,1,0,20.6,28Z" transform="translate(1.392 4.415)" fill="#fff"/></g></g></svg>