<svg xmlns="http://www.w3.org/2000/svg" width="235.875" height="235.875" viewBox="0 0 235.875 235.875"><g transform="translate(0 0)"><path d="M117.938,0A117.938,117.938,0,1,1,0,117.938,117.937,117.937,0,0,1,117.938,0Z" transform="translate(0 0)" fill="#f5c6c6"/><text transform="translate(115.938 161.05)" fill="#fff" font-size="30" font-family="Avenir-Black, Avenir" font-weight="800" letter-spacing="0.15em"><tspan x="-83.52" y="0">desayuno</tspan></text></g><g transform="translate(73.711 57.494)"><g transform="translate(16.448 16.335)"><path d="M93.4,201.6h-.02a1.34,1.34,0,1,1,0-2.681h.02a1.34,1.34,0,1,1,0,2.681Z" transform="translate(-92.043 -198.916)" fill="#fff"/></g><g transform="translate(38.169 37.885)"><path d="M214.949,322.188h-.02a1.34,1.34,0,1,1,0-2.681h.02a1.34,1.34,0,1,1,0,2.681Z" transform="translate(-213.588 -319.507)" fill="#fff"/></g><g transform="translate(43.13 18.425)"><path d="M242.714,213.292h-.026a1.34,1.34,0,0,1,0-2.681h.026a1.34,1.34,0,1,1,0,2.681Z" transform="translate(-241.348 -210.611)" fill="#fff"/></g><g transform="translate(36.017 26.444)"><path d="M202.906,258.165h-.02a1.34,1.34,0,0,1,0-2.681h.02a1.34,1.34,0,0,1,0,2.681Z" transform="translate(-201.545 -255.484)" fill="#fff"/></g><g transform="translate(24.701 37.519)"><path d="M139.59,320.14h-.025a1.34,1.34,0,0,1,0-2.681h.025a1.34,1.34,0,1,1,0,2.681Z" transform="translate(-138.224 -317.459)" fill="#fff"/></g><g transform="translate(47.134 29.678)"><path d="M265.122,276.262H265.1a1.34,1.34,0,0,1,0-2.681h.026a1.34,1.34,0,1,1,0,2.681Z" transform="translate(-263.756 -273.581)" fill="#fff"/></g><path d="M90.215,148.078a1.315,1.315,0,0,0-.1-.133L79.4,135.275c-.08-.151-.16-.3-.246-.453a9.991,9.991,0,0,0,2.937-6.53,9.736,9.736,0,0,0-2.394-6.734,9.6,9.6,0,0,0-12.991-1.7q-.473-.4-.965-.737l-7.2-8.51a8.1,8.1,0,0,0-5.807-3.072A9.693,9.693,0,0,0,45.6,110.06a1.353,1.353,0,0,0-.111.115l-1.1,1.274a8.362,8.362,0,0,0-2.107-.432,9.672,9.672,0,0,0-6.462,1.963,13.9,13.9,0,0,0-9.7-2.116,1.34,1.34,0,0,0,.338,2.659,11.4,11.4,0,0,1,7.475,1.416L18.4,133.036,14.989,136.9c-1.306-2.186-1.429-4.28-1.587-7.006-.028-.477-.056-.969-.092-1.479-.337-4.743,1.047-7.927,4.625-10.643a32.053,32.053,0,0,1,3.255-2.161,1.34,1.34,0,0,0-1.339-2.322,34.861,34.861,0,0,0-3.535,2.346c-4.332,3.289-6.084,7.289-5.68,12.969.035.5.063.979.09,1.445.049.836.1,1.644.177,2.437A11.531,11.531,0,0,0,4.072,138c-1.741,3.261-1.921,7.543-.521,11.856l-1.632,1.848c-1.79,1.836-2.363,3.969-1.571,5.858A5.256,5.256,0,0,0,5.4,160.579h19.92a1.34,1.34,0,0,0,0-2.681H5.4a2.683,2.683,0,0,1-2.579-1.372c-.358-.853.02-1.935,1.036-2.969.017-.017.033-.035.049-.053l16.523-18.717,16.578-19.32a6.962,6.962,0,0,1,5.072-1.779,5.476,5.476,0,0,1,3.932,2.089l.02.025,31.53,37.287a3.525,3.525,0,0,1,.564,3.4c-.524.947-2,1.446-4.15,1.405H31.537a1.34,1.34,0,0,0,0,2.681h42.4l.277,0c3.883,0,5.545-1.507,6.255-2.789a4.421,4.421,0,0,0,.31-.7h3.613l.278,0c3.881,0,5.542-1.506,6.251-2.787.965-1.742.7-4.073-.708-6.234Zm-84.546-.62a11.921,11.921,0,0,1,.767-8.193,8.692,8.692,0,0,1,4.932-4.1,12.094,12.094,0,0,0,1.776,3.83ZM53.327,120.28l-5.238-6.195a8.689,8.689,0,0,0-1.307-1.308l.681-.792a6.973,6.973,0,0,1,5.072-1.778,5.477,5.477,0,0,1,3.933,2.093l.021.026,4.016,4.748a8.3,8.3,0,0,0-2.4.095A7.643,7.643,0,0,0,53.327,120.28Zm12.392,14.654,2.515-2.087,3.569,1.094a1.34,1.34,0,1,0,.786-2.563L70.7,130.8l2.325-1.929a1.34,1.34,0,1,0-1.712-2.063l-2.325,1.929-.173-1.555a1.34,1.34,0,1,0-2.664.3l.368,3.307-2.532,2.1-8.856-10.473a5.125,5.125,0,0,1,3.481-2.613c2.238-.431,4.884.6,7.078,2.746a1.34,1.34,0,0,0,1.793.075,6.978,6.978,0,0,1,10.177.678c2.263,2.648,2.8,6.86-1.1,10.3a1.34,1.34,0,0,0-.226,1.753c1.858,2.765,2.478,5.841,1.618,8.029a4.578,4.578,0,0,1-2.84,2.659Zm22.86,18.078c-.524.945-1.992,1.447-4.147,1.4H80.945a7.863,7.863,0,0,0-1.181-2.854,1.3,1.3,0,0,0-.1-.134l-2.745-3.246a7.1,7.1,0,0,0,3.527-3.817A8.471,8.471,0,0,0,81,141.312l7.015,8.3a3.528,3.528,0,0,1,.566,3.4Z" transform="translate(0 -107.51)" fill="#fff"/><g transform="translate(55.316 39.756)"><path d="M310.9,332.659h-.026a1.34,1.34,0,0,1,0-2.681h.026a1.34,1.34,0,0,1,0,2.681Z" transform="translate(-309.538 -329.978)" fill="#fff"/></g></g></svg>