<svg xmlns="http://www.w3.org/2000/svg" width="108" height="108" viewBox="0 0 108 108"><g transform="translate(0.208)"><path d="M54,0A54,54,0,1,1,0,54,54,54,0,0,1,54,0Z" transform="translate(-0.208)" fill="#f0d155"/><text transform="translate(53.792 71)" fill="#626262" font-size="11" font-family="Avenir-Black, Avenir" font-weight="800" letter-spacing="0.02em"><tspan x="-41.652" y="0">Café americano</tspan><tspan x="-9.988" y="16">$40</tspan></text><g transform="translate(38.18 17.843)"><g transform="translate(0 0)"><g transform="translate(0 0)"><path d="M31.144,208.583h-6.7a9.986,9.986,0,0,0,4-2.824,6.85,6.85,0,0,0,5.876-7.06c0-2.193-1.221-4.023-2.8-4.343,0-.017,0-.033,0-.05a1.126,1.126,0,0,0-1.1-1.1H5.169a1.126,1.126,0,0,0-1.1,1.1c.042,5.906,1.071,11.878,7.08,14.278H4.4a1.418,1.418,0,0,0-1.428,1.428,1.348,1.348,0,0,0,1.208,1.318l6.974.494a.413.413,0,0,1,.384.275,1.583,1.583,0,0,0,1.428.879h9.116a1.448,1.448,0,0,0,1.373-.879.413.413,0,0,1,.384-.275l7.468-.494h.055a1.348,1.348,0,0,0,1.208-1.318A1.418,1.418,0,0,0,31.144,208.583Zm.384-13.07c.934.33,1.647,1.647,1.647,3.185a5.721,5.721,0,0,1-3.728,5.654q.069-.117.135-.236C31.108,201.471,31.421,198.285,31.528,195.513ZM5.169,194.305H30.43c-.055,7.414-1.647,14.278-12.63,14.278S5.224,201.719,5.169,194.305Zm26.085,15.925-7.359.494a1.712,1.712,0,0,0-1.318.879.56.56,0,0,1-.439.275H12.967a.56.56,0,0,1-.439-.275,1.712,1.712,0,0,0-1.318-.879l-6.864-.494c-.275-.055-.275-.165-.275-.22a.354.354,0,0,1,.33-.33H31.2a.354.354,0,0,1,.33.33C31.528,210.066,31.528,210.176,31.253,210.231Z" transform="translate(-2.972 -181.126)" fill="#626262"/><path d="M216.1,3.559a3.612,3.612,0,0,0-1.263,2.526A3.943,3.943,0,0,0,216.1,8.721a.531.531,0,0,0,.769,0,.531.531,0,0,0,0-.769,2.879,2.879,0,0,1-.934-1.867,2.448,2.448,0,0,1,.934-1.757A3.514,3.514,0,0,0,218.13,1.8a3.62,3.62,0,0,0-1.263-2.636.531.531,0,0,0-.769,0,.531.531,0,0,0,0,.769,2.879,2.879,0,0,1,.934,1.867A2.448,2.448,0,0,1,216.1,3.559Z" transform="translate(-201.655 0.999)" fill="#626262"/><path d="M311.938,6.084A3.943,3.943,0,0,0,313.2,8.72a.5.5,0,0,0,.384.165.391.391,0,0,0,.33-.165.531.531,0,0,0,0-.769,2.879,2.879,0,0,1-.934-1.867,2.448,2.448,0,0,1,.934-1.757A3.4,3.4,0,0,0,315.233,1.8,3.532,3.532,0,0,0,313.97-.835a.531.531,0,0,0-.769,0,.531.531,0,0,0,0,.769,2.879,2.879,0,0,1,.934,1.867,2.548,2.548,0,0,1-.934,1.757A3.612,3.612,0,0,0,311.938,6.084Z" transform="translate(-292.718 1)" fill="#626262"/><path d="M126.559,6.084a3.943,3.943,0,0,0,1.263,2.636.5.5,0,0,0,.384.165.392.392,0,0,0,.33-.165.531.531,0,0,0,0-.769,2.879,2.879,0,0,1-.934-1.867,2.448,2.448,0,0,1,.934-1.757A3.4,3.4,0,0,0,129.854,1.8a3.532,3.532,0,0,0-1.263-2.636.531.531,0,0,0-.769,0,.531.531,0,0,0,0,.769,2.879,2.879,0,0,1,.934,1.867,2.548,2.548,0,0,1-.934,1.757A3.612,3.612,0,0,0,126.559,6.084Z" transform="translate(-118.871 1)" fill="#626262"/><path d="M72.435,280.215c-3.9-.659-5.876-2.856-6.7-7.249a.56.56,0,1,0-1.1.22c.879,4.887,3.24,7.359,7.578,8.127h.11a.535.535,0,0,0,.549-.439A.57.57,0,0,0,72.435,280.215Z" transform="translate(-60.793 -255.503)" fill="#626262"/></g></g></g></g></svg>