<svg xmlns="http://www.w3.org/2000/svg" width="108" height="108" viewBox="0 0 108 108"><g transform="translate(0.276)"><path d="M54,0A54,54,0,1,1,0,54,54,54,0,0,1,54,0Z" transform="translate(-0.276)" fill="#f0d155"/><text transform="translate(53.724 71)" fill="#626262" font-size="11" font-family="Avenir-Black, Avenir" font-weight="800" letter-spacing="0.02em"><tspan x="-33.693" y="0">Jugo natural</tspan><tspan x="-9.988" y="16">$35</tspan></text><g transform="translate(34.724 12.453)"><g transform="translate(0 0)"><g transform="translate(0 0)"><path d="M85.471,5.253H74.514A9.817,9.817,0,1,0,58.9,16.775a.653.653,0,0,0,.925,0l1.851-1.851,3.511-3.511V37.321a1.963,1.963,0,0,0,1.963,1.963H84.162a1.963,1.963,0,0,0,1.963-1.963V5.908A.654.654,0,0,0,85.471,5.253ZM74.321,9.18H73a7.132,7.132,0,0,0-.761-2.618h1.44A8.433,8.433,0,0,1,74.321,9.18ZM59.377,15.37A8.5,8.5,0,1,1,73,5.253H71.387a7.2,7.2,0,0,0-11.332,8.881q.122.156.253.3ZM71.692,9.18h-5.2V6.562h4.235A5.842,5.842,0,0,1,71.692,9.18ZM65.184,5.908V9.564l-3.948,3.948a5.885,5.885,0,0,1,8.291-8.258H65.838A.654.654,0,0,0,65.184,5.908ZM84.817,37.321a.654.654,0,0,1-.654.654H67.147a.654.654,0,0,1-.654-.654V35.995a3.238,3.238,0,0,0,1.963.671h14.4a3.238,3.238,0,0,0,1.963-.671Zm0-3.927a1.963,1.963,0,0,1-1.963,1.963h-14.4a1.963,1.963,0,0,1-1.963-1.963V13.107H84.817Zm0-21.6H66.493V10.489H75a.654.654,0,0,0,.654-.654,9.758,9.758,0,0,0-.573-3.272h9.735Z" transform="translate(-56.005 0)" fill="#626262"/></g></g><g transform="translate(26.195 24.886)"><path d="M376.871,304.221a.654.654,0,0,0-.654.654v4.581a.654.654,0,1,0,1.309,0v-4.581A.654.654,0,0,0,376.871,304.221Z" transform="translate(-376.217 -304.221)" fill="#626262"/></g><g transform="translate(26.195 32.085)"><path d="M376.871,392.221a.654.654,0,0,0-.654.654v.654a.654.654,0,1,0,1.309,0v-.654A.654.654,0,0,0,376.871,392.221Z" transform="translate(-376.217 -392.221)" fill="#626262"/></g></g></g></svg>