<svg xmlns="http://www.w3.org/2000/svg" width="108" height="108" viewBox="0 0 108 108"><path d="M54,0A54,54,0,1,1,0,54,54,54,0,0,1,54,0Z" fill="#f0d155"/><text transform="translate(53 64)" fill="#626262" font-size="11" font-family="Avenir-Black, Avenir" font-weight="800" letter-spacing="0.02em"><tspan x="-26.45" y="0">sandwich </tspan><tspan x="-30.717" y="12">de hummus</tspan><tspan x="-9.988" y="24">$70</tspan></text><g transform="translate(32.835 21.669)"><g transform="translate(7.51 7.458)"><path d="M92.664,200.14h-.009a.612.612,0,1,1,0-1.224h.009a.612.612,0,1,1,0,1.224Z" transform="translate(-92.043 -198.916)" fill="#626262"/></g><g transform="translate(17.427 17.297)"><path d="M214.209,320.731H214.2a.612.612,0,1,1,0-1.224h.009a.612.612,0,1,1,0,1.224Z" transform="translate(-213.588 -319.507)" fill="#626262"/></g><g transform="translate(19.692 8.412)"><path d="M241.972,211.835h-.012a.612.612,0,1,1,0-1.224h.012a.612.612,0,0,1,0,1.224Z" transform="translate(-241.348 -210.611)" fill="#626262"/></g><g transform="translate(16.444 12.073)"><path d="M202.166,256.708h-.009a.612.612,0,1,1,0-1.224h.009a.612.612,0,1,1,0,1.224Z" transform="translate(-201.545 -255.484)" fill="#626262"/></g><g transform="translate(11.278 17.13)"><path d="M138.848,318.683h-.012a.612.612,0,1,1,0-1.224h.012a.612.612,0,1,1,0,1.224Z" transform="translate(-138.224 -317.459)" fill="#626262"/></g><g transform="translate(21.52 13.55)"><path d="M264.38,274.8h-.012a.612.612,0,1,1,0-1.224h.012a.612.612,0,1,1,0,1.224Z" transform="translate(-263.756 -273.581)" fill="#626262"/></g><path d="M41.19,126.032a.6.6,0,0,0-.045-.061l-4.891-5.784c-.037-.069-.073-.138-.112-.207A4.562,4.562,0,0,0,37.482,117a4.445,4.445,0,0,0-1.093-3.074,4.382,4.382,0,0,0-5.931-.778q-.216-.181-.44-.337l-3.287-3.885a3.7,3.7,0,0,0-2.651-1.4,4.425,4.425,0,0,0-3.261,1.153.615.615,0,0,0-.051.052l-.5.582a3.818,3.818,0,0,0-.962-.2,4.416,4.416,0,0,0-2.95.9,6.346,6.346,0,0,0-4.43-.966.612.612,0,0,0,.154,1.214,5.2,5.2,0,0,1,3.413.647L8.4,119.164l-1.558,1.764a6.443,6.443,0,0,1-.725-3.2c-.013-.218-.026-.442-.042-.675A5.035,5.035,0,0,1,8.189,112.2a14.639,14.639,0,0,1,1.486-.987.612.612,0,0,0-.611-1.06A15.914,15.914,0,0,0,7.45,111.22a6.213,6.213,0,0,0-2.594,5.921c.016.227.029.447.041.66.022.382.044.751.081,1.113a5.265,5.265,0,0,0-3.119,2.518,6.982,6.982,0,0,0-.238,5.413l-.745.844a2.436,2.436,0,0,0-.717,2.674,2.4,2.4,0,0,0,2.306,1.377H11.56a.612.612,0,0,0,0-1.224H2.465a1.225,1.225,0,0,1-1.178-.626,1.3,1.3,0,0,1,.473-1.356l.022-.024,7.544-8.546,7.569-8.821a3.179,3.179,0,0,1,2.316-.812,2.5,2.5,0,0,1,1.8.954l.009.011,14.4,17.024a1.609,1.609,0,0,1,.258,1.553c-.239.432-.915.66-1.895.642H14.4a.612.612,0,1,0,0,1.224H33.885c1.773,0,2.532-.688,2.856-1.273a2.018,2.018,0,0,0,.141-.318h1.777c1.772,0,2.53-.687,2.854-1.273a2.775,2.775,0,0,0-.323-2.846Zm-38.6-.283a5.443,5.443,0,0,1,.35-3.741,3.969,3.969,0,0,1,2.252-1.874A5.522,5.522,0,0,0,6,121.883ZM24.348,113.34l-2.392-2.828a3.968,3.968,0,0,0-.6-.6l.311-.362a3.184,3.184,0,0,1,2.316-.812,2.5,2.5,0,0,1,1.8.956l.01.012,1.834,2.168a3.788,3.788,0,0,0-1.1.043A3.49,3.49,0,0,0,24.348,113.34Zm5.658,6.691,1.148-.953,1.629.5a.612.612,0,1,0,.359-1.17l-.862-.264,1.062-.881a.612.612,0,1,0-.782-.942L31.5,117.2l-.079-.71a.612.612,0,1,0-1.216.135l.168,1.51-1.156.959-4.043-4.782a2.34,2.34,0,0,1,1.589-1.193,3.8,3.8,0,0,1,3.232,1.254.612.612,0,0,0,.819.034,3.255,3.255,0,1,1,4.144,5.013.612.612,0,0,0-.1.8,4.185,4.185,0,0,1,.739,3.666,2.09,2.09,0,0,1-1.3,1.214Zm10.437,8.254c-.239.432-.91.661-1.894.641H36.957a3.59,3.59,0,0,0-.539-1.3.6.6,0,0,0-.045-.061l-1.253-1.482a3.24,3.24,0,0,0,1.61-1.743,3.868,3.868,0,0,0,.252-1.394l3.2,3.788A1.611,1.611,0,0,1,40.443,128.285Z" transform="translate(0 -107.51)" fill="#626262"/><g transform="translate(25.256 18.152)"><path d="M310.162,331.2h-.012a.612.612,0,1,1,0-1.224h.012a.612.612,0,0,1,0,1.224Z" transform="translate(-309.538 -329.978)" fill="#626262"/></g></g></svg>