<svg xmlns="http://www.w3.org/2000/svg" width="108" height="108" viewBox="0 0 108 108"><g transform="translate(0.067)"><path d="M54,0A54,54,0,1,1,0,54,54,54,0,0,1,54,0Z" transform="translate(-0.067)" fill="#f0d155"/><text transform="translate(53.933 71)" fill="#626262" font-size="11" font-family="Avenir-Black, Avenir" font-weight="800" letter-spacing="0.02em"><tspan x="-18.183" y="0">Té chai</tspan><tspan x="-9.988" y="16">$60</tspan></text><g transform="translate(39.708 28.373)"><path d="M23.5,56.5h-.846v-.561a1.337,1.337,0,0,0-1.335-1.335H12.44a.424.424,0,1,0,0,.847h8.878a.488.488,0,0,1,.488.488V57.6H6.112V55.454h4.351a.424.424,0,1,0,0-.847H8.429v-.6a1.582,1.582,0,0,0-3.165,0v.6H1.335A1.337,1.337,0,0,0,0,55.942v9.021a7.6,7.6,0,0,0,4.108,6.743H1.127a.771.771,0,0,0-.7,1.1,7.6,7.6,0,0,0,1.215,1.824,2.413,2.413,0,0,0,1.792.8H19.218a2.414,2.414,0,0,0,1.792-.8A7.594,7.594,0,0,0,22.225,72.8a.771.771,0,0,0-.7-1.1h-2.98a7.635,7.635,0,0,0,2.085-1.59H23.5a5.431,5.431,0,0,0,5.425-5.425V61.928A5.431,5.431,0,0,0,23.5,56.5ZM6.112,54.011a.735.735,0,0,1,1.47,0v.6H6.112ZM.847,55.942a.488.488,0,0,1,.488-.488H5.264V57.6H.847ZM21.4,72.553a6.749,6.749,0,0,1-1.025,1.508,1.565,1.565,0,0,1-1.161.521H3.435a1.565,1.565,0,0,1-1.161-.521,6.752,6.752,0,0,1-1.025-1.509Zm-6.342-.847H7.59A6.751,6.751,0,0,1,.847,64.963V58.45H5.264v.72a1.484,1.484,0,0,0-.759.521L3.283,61.277a1.613,1.613,0,0,0-.334.98V66.53a.98.98,0,0,0,.979.979H7.449a.98.98,0,0,0,.979-.979v-.94a.424.424,0,1,0-.847,0v.94a.132.132,0,0,1-.132.132H3.928A.132.132,0,0,1,3.8,66.53V62.257a.761.761,0,0,1,.158-.463l1.223-1.585a.65.65,0,0,1,.088-.092v.9a1.3,1.3,0,1,0,.847,0v-.9a.656.656,0,0,1,.088.092l1.223,1.585a.761.761,0,0,1,.158.463v1.356a.424.424,0,1,0,.847,0V62.257a1.614,1.614,0,0,0-.334-.98L6.871,59.691a1.484,1.484,0,0,0-.759-.521v-.72H21.806v6.513A6.751,6.751,0,0,1,15.063,71.706ZM5.688,61.8a.455.455,0,1,1-.455.455A.456.456,0,0,1,5.688,61.8Zm16.965,3.167V59.488H23.5a2.442,2.442,0,0,1,2.439,2.439v2.764A2.442,2.442,0,0,1,23.5,67.131H22.337A7.565,7.565,0,0,0,22.653,64.963Zm5.424-.272A4.583,4.583,0,0,1,23.5,69.268H21.314a7.548,7.548,0,0,0,.716-1.291H23.5a3.291,3.291,0,0,0,3.287-3.287V61.928A3.291,3.291,0,0,0,23.5,58.641h-.846V57.35H23.5a4.583,4.583,0,0,1,4.577,4.577Z" transform="translate(0 -52.429)" fill="#626262"/></g></g></svg>