<svg xmlns="http://www.w3.org/2000/svg" width="75" height="75" viewBox="0 0 75 75"><g transform="translate(-89 -528)"><g transform="translate(89 528)"><path d="M37.5,0A37.5,37.5,0,1,1,0,37.5,37.5,37.5,0,0,1,37.5,0Z" fill="#f0d155"/><text transform="translate(37 49)" fill="#848484" font-size="12" font-family="Avenir-Black, Avenir" font-weight="800" letter-spacing="0.02em"><tspan x="-16.704" y="0">doble</tspan></text><text transform="translate(37 64)" fill="#848484" font-size="12" font-family="Avenir-Black, Avenir" font-weight="800" letter-spacing="0.02em"><tspan x="-14.568" y="0">$130</tspan></text></g><g transform="translate(114 538.883)"><path d="M286.629,45.078a10.985,10.985,0,0,1,4.456,1.69,6.945,6.945,0,0,1,2.578,2.973.506.506,0,1,0,.932-.393,7.949,7.949,0,0,0-2.944-3.418,12,12,0,0,0-4.868-1.852.506.506,0,0,0-.155,1Zm0,0" transform="translate(-271.723 -41.843)" fill="#848484"/><path d="M99.672,125.906a.506.506,0,1,0,.174-.606A.517.517,0,0,0,99.672,125.906Zm0,0" transform="translate(-94.595 -118.876)" fill="#848484"/><path d="M147.843,88.662a.505.505,0,1,0,.171-.6A.517.517,0,0,0,147.843,88.662Zm0,0" transform="translate(-140.33 -83.516)" fill="#848484"/><path d="M199.61,125.906a.506.506,0,1,0,.174-.606A.518.518,0,0,0,199.61,125.906Zm0,0" transform="translate(-189.478 -118.876)" fill="#848484"/><path d="M25.9,16.033a2.563,2.563,0,0,0-1.711-2.414V12.353a2.173,2.173,0,0,0,.459-.234,2,2,0,0,0,.906-1.677,1.976,1.976,0,0,0-.375-1.164,1.632,1.632,0,0,0,.1-.936A9.44,9.44,0,0,0,21.091,2.37,14.64,14.64,0,0,0,12.95,0,14.64,14.64,0,0,0,4.809,2.37,9.439,9.439,0,0,0,.62,8.341,1.631,1.631,0,0,0,.831,9.493a1.968,1.968,0,0,0-.239.948A2,2,0,0,0,1.5,12.119a2.2,2.2,0,0,0,.213.125v1.375A2.563,2.563,0,0,0,0,16.033v.1a2.552,2.552,0,0,0,.816,1.871,1.995,1.995,0,0,0,.293,2.258v1.825a3.541,3.541,0,0,0,3.537,3.537H21.255a3.541,3.541,0,0,0,3.537-3.537v-1.6a2,2,0,0,0,.449-2.645,2.548,2.548,0,0,0,.66-1.713Zm-1.012,0v.1a1.55,1.55,0,0,1-1.547,1.547H15.5l3.226-3.2h4.618A1.549,1.549,0,0,1,24.888,16.033ZM7.667,14.485l.08.08.519.519L7.18,16.171,5.494,14.485Zm4.776,3.345-3.1-3.1h0L9.1,14.485h8.185L13.9,17.829h0l-.729.729ZM1.614,8.527a8.441,8.441,0,0,1,3.761-5.32,13.62,13.62,0,0,1,7.574-2.2,13.62,13.62,0,0,1,7.574,2.2,8.442,8.442,0,0,1,3.761,5.32.636.636,0,0,1-.618.743H2.233A.635.635,0,0,1,1.614,8.527Zm.026,1.645a1.647,1.647,0,0,0,.592.11H23.667a1.65,1.65,0,0,0,.8-.209.981.981,0,0,1,.072.369,1,1,0,0,1-.459.837,1.192,1.192,0,0,1-1.019.14c-.169-.053-.328-.122-.5-.159a2.735,2.735,0,0,0-.573-.058,2.773,2.773,0,0,0-1.778.617,1.867,1.867,0,0,1-2.389,0,2.869,2.869,0,0,0-3.556,0,1.867,1.867,0,0,1-2.389,0,2.87,2.87,0,0,0-3.556,0,1.867,1.867,0,0,1-2.389,0A2.771,2.771,0,0,0,4.156,11.2a2.561,2.561,0,0,0-.985.185,1.194,1.194,0,0,1-1.108-.108,1,1,0,0,1-.459-.837A.974.974,0,0,1,1.641,10.172Zm1.182,2.314a2.457,2.457,0,0,0,.761-.174,1.742,1.742,0,0,1,.776-.089,1.83,1.83,0,0,1,.99.423,2.869,2.869,0,0,0,3.556,0,1.867,1.867,0,0,1,2.389,0,2.869,2.869,0,0,0,3.556,0,1.867,1.867,0,0,1,2.389,0,2.869,2.869,0,0,0,3.556,0,1.788,1.788,0,0,1,1.194-.432,1.638,1.638,0,0,1,.6.11,2.343,2.343,0,0,0,.585.151v1H2.723v-.986ZM1.012,16.033a1.549,1.549,0,0,1,1.547-1.547h1.5l2.759,2.759a.506.506,0,0,0,.715,0L8.982,15.8l1.883,1.883H2.559a1.549,1.549,0,0,1-1.547-1.547Zm.675,2.509a2.567,2.567,0,0,0,.872.153h9.317l.938.938a.511.511,0,0,0,.714,0l.948-.94h8.865a2.574,2.574,0,0,0,.84-.142,1.288,1.288,0,0,0,.167-.067c.017-.009.042-.029.062-.027s.035.038.045.06a.979.979,0,0,1,.086.386,1.053,1.053,0,0,1-.784,1.007,1.2,1.2,0,0,1-.783-.043,2.556,2.556,0,0,0-.985-.185,2.771,2.771,0,0,0-1.778.617,1.867,1.867,0,0,1-2.389,0,2.869,2.869,0,0,0-3.556,0,1.867,1.867,0,0,1-2.389,0,2.869,2.869,0,0,0-3.556,0,1.867,1.867,0,0,1-2.389,0,2.772,2.772,0,0,0-1.778-.617,2.555,2.555,0,0,0-.985.186,1.193,1.193,0,0,1-1.027-.058,1.037,1.037,0,0,1-.529-.737,1,1,0,0,1,0-.283C1.616,18.762,1.662,18.532,1.687,18.541ZM23.78,22.089a2.528,2.528,0,0,1-2.525,2.525H4.645A2.528,2.528,0,0,1,2.12,22.089v-1.2a2.191,2.191,0,0,0,1.291-.033l.026-.009c.039-.014.078-.028.116-.043a1.566,1.566,0,0,1,.6-.11,1.787,1.787,0,0,1,1.194.432,2.869,2.869,0,0,0,3.556,0,1.867,1.867,0,0,1,2.389,0,2.869,2.869,0,0,0,3.556,0,1.867,1.867,0,0,1,2.389,0,2.869,2.869,0,0,0,3.556,0,1.787,1.787,0,0,1,1.194-.432,1.67,1.67,0,0,1,.448.057c.139.039.269.1.408.139a2.183,2.183,0,0,0,.934.053v1.146Zm0,0" fill="#848484"/><path d="M225.222,88.662a.506.506,0,1,0,.175-.606A.517.517,0,0,0,225.222,88.662Zm0,0" transform="translate(-213.794 -83.515)" fill="#848484"/><path d="M270.34,132.746a.506.506,0,1,0,.174-.606A.517.517,0,0,0,270.34,132.746Zm0,0" transform="translate(-256.63 -125.37)" fill="#848484"/><path d="M241.311,38.633a.506.506,0,1,0-.192-.6A.516.516,0,0,0,241.311,38.633Zm0,0" transform="translate(-228.893 -35.799)" fill="#848484"/></g></g></svg>