<svg xmlns="http://www.w3.org/2000/svg" width="75" height="75" viewBox="0 0 75 75"><g transform="translate(-2094 -5213)"><g transform="translate(2094 5213)"><path d="M37.5,0A37.5,37.5,0,1,1,0,37.5,37.5,37.5,0,0,1,37.5,0Z" fill="#f0d155"/><text transform="translate(38 57)" fill="#848484" font-size="12" font-family="Avenir-Black, Avenir" font-weight="800" letter-spacing="0.02em"><tspan x="-13.356" y="0">soya</tspan></text></g><g transform="translate(2115 5224)"><path d="M348.015,359.213a4.7,4.7,0,1,0,6.651,0A4.708,4.708,0,0,0,348.015,359.213Zm5.321,5.321a2.822,2.822,0,1,1,0-3.991A2.825,2.825,0,0,1,353.336,364.534Z" transform="translate(-324.903 -335.4)" fill="#848484"/><path d="M23.6,2.017a36.158,36.158,0,0,0-13.552,8.1A35.859,35.859,0,0,0,1.978,23.637,40.1,40.1,0,0,0,.153,30.928L0,32.131c7.945-1.007,16.452-4.481,22.017-10.045,5.6-5.6,9.075-14.162,10.114-22.086A39.756,39.756,0,0,0,23.6,2.017ZM11.376,11.445c4.568-4.568,11.211-7.57,17.548-8.994Q27,5.1,24.892,7.685c-.069-.079-.14-.156-.215-.231A4.7,4.7,0,0,0,16.7,11.447a4.7,4.7,0,0,0-5.319,5.319,4.7,4.7,0,0,0-3.993,7.981c.073.073.148.142.224.209Q5.06,27.034,2.433,28.938C3.824,22.65,6.8,16.02,11.376,11.445ZM9.087,23.729A2.822,2.822,0,1,1,13.2,20.1Q11.181,21.964,9.087,23.729Zm5.682-5.105a2.822,2.822,0,1,1,3.787-3.784Q16.7,16.772,14.769,18.624Zm5.262-5.351a2.821,2.821,0,1,1,3.634-4.11Q21.9,11.251,20.031,13.273Zm.656,7.483c-4.126,4.126-9.839,6.892-15.419,8.426A123.492,123.492,0,0,0,29.153,5.306C27.59,10.916,24.805,16.638,20.687,20.756Z" fill="#848484"/></g></g></svg>