<svg xmlns="http://www.w3.org/2000/svg" width="75" height="75" viewBox="0 0 75 75"><g transform="translate(-1920 -5213)"><g transform="translate(1920 5213)"><path d="M37.5,0A37.5,37.5,0,1,1,0,37.5,37.5,37.5,0,0,1,37.5,0Z" fill="#f0d155"/><text transform="translate(38 55)" fill="#848484" font-size="11" font-family="Avenir-Black, Avenir" font-weight="800" letter-spacing="0.02em"><tspan x="-28.479" y="0">portobello</tspan></text></g><g transform="translate(1938.987 5224.987)"><path d="M23.64,47.334a16.529,16.529,0,0,1,.7,4.751h1.026a17.549,17.549,0,0,0-.741-5.046Z" transform="translate(-11.029 -22.429)" fill="#848484"/><path d="M44.6,44.077a27.489,27.489,0,0,0-.47-5.056l-1.008.189a26.47,26.47,0,0,1,.452,4.866Z" transform="translate(-20.518 -18.522)" fill="#848484"/><path d="M32.8,7.979a5.322,5.322,0,0,0-2.8-4.691l-.071-.038a18.821,18.821,0,0,0-17.846,0l-.07.037A5.312,5.312,0,0,0,9.4,9.393a15.709,15.709,0,0,0-5.535,1.949l-.509.3a4.746,4.746,0,0,0,2.311,8.845A2.569,2.569,0,0,0,8.18,22.539h.336l-.622,2.072a17.549,17.549,0,0,0-.741,5.046A3.139,3.139,0,0,0,10.293,32.8h2.953a3.139,3.139,0,0,0,3.139-3.139,17.515,17.515,0,0,0-.235-2.814,3.134,3.134,0,0,0,2.861,1.851H22.99a3.139,3.139,0,0,0,3.139-3.139,27.489,27.489,0,0,0-.47-5.056L24.7,15.359H25.1A2.568,2.568,0,0,0,27.616,13.3,5.332,5.332,0,0,0,32.8,7.979ZM2.026,15.74a3.733,3.733,0,0,1,1.847-3.215l.509-.3a14.661,14.661,0,0,1,14.776,0l.509.3a3.721,3.721,0,0,1-1.875,6.936H5.747A3.726,3.726,0,0,1,2.026,15.74Zm4.71,4.747H16.8a1.536,1.536,0,0,1-1.444,1.026H8.18a1.536,1.536,0,0,1-1.444-1.026Zm8,10.663a2.13,2.13,0,0,1-1.494.619H10.293A2.13,2.13,0,0,1,8.8,31.151a2.1,2.1,0,0,1-.619-1.494,16.529,16.529,0,0,1,.7-4.751l.71-2.366h4.365l.71,2.366a16.529,16.529,0,0,1,.7,4.751,2.1,2.1,0,0,1-.619,1.494Zm.9-6.54-.622-2.072h.336a2.529,2.529,0,0,0,.692-.107,27.587,27.587,0,0,0-.178,3.057c-.072-.294-.142-.588-.229-.878Zm9.006-3.923a26.47,26.47,0,0,1,.452,4.866,2.1,2.1,0,0,1-.619,1.494,2.13,2.13,0,0,1-1.494.619H19.011a2.13,2.13,0,0,1-1.494-.619,2.1,2.1,0,0,1-.619-1.494,26.52,26.52,0,0,1,.272-3.766,2.562,2.562,0,0,0,.7-1.3,4.75,4.75,0,0,0,4.667-4.743c0-.128-.015-.254-.026-.381h1.139Zm.452-6.354H22.316a4.757,4.757,0,0,0-.455-1.026h4.687A1.536,1.536,0,0,1,25.1,14.334Zm2.364-2.051H21.031a4.708,4.708,0,0,0-.847-.643l-.509-.3A15.7,15.7,0,0,0,11.77,9.205c-.448,0-.894.026-1.34.065a4.3,4.3,0,0,1,2.065-5.08l.07-.037a17.8,17.8,0,0,1,16.872,0l.071.038a4.3,4.3,0,0,1-2.041,8.092Z" fill="#848484"/><path d="M54.564,14A2.567,2.567,0,0,1,52,16.564V17.59A3.594,3.594,0,0,0,55.59,14Z" transform="translate(-24.845 -6.333)" fill="#848484"/></g></g></svg>