<svg xmlns="http://www.w3.org/2000/svg" width="75" height="75" viewBox="0 0 75 75"><g transform="translate(-2007 -5213)"><g transform="translate(2007 5213)"><path d="M37.5,0A37.5,37.5,0,1,1,0,37.5,37.5,37.5,0,0,1,37.5,0Z" fill="#f0d155"/><text transform="translate(38 58)" fill="#848484" font-size="12" font-family="Avenir-Black, Avenir" font-weight="800" letter-spacing="0.02em"><tspan x="-20.814" y="0">Granos</tspan></text></g><path d="M29.908,38.42c1.012-2.025-.385-4.706-3.18-6.1a6.961,6.961,0,0,0-4.246-.984,3.635,3.635,0,0,0,1.212-2.921c0-1.782-.641-2.981-1.906-3.564a8.968,8.968,0,0,0-3.666-.473c-2.913,0-5.238,1.542-5.539,3.585-4.808-1.928-8.121,1.99-5.023,5.793-.627-.062-1.3-.062-1.985-.062-4.874,0-7.117,4-4.412,6.532-3.083,4.176,1.672,8.452,7.713,4.189a4.245,4.245,0,0,0,3.22,1.048c-.548,5.812,3.973,8,6.6,4.744a7.61,7.61,0,0,0,1.474-4.836,9.2,9.2,0,0,0,5.1,2.515,3.682,3.682,0,0,0,3.307-1.948c.906-1.534.964-2.893.171-4.038a6.255,6.255,0,0,0-1.817-1.6A3.672,3.672,0,0,0,29.908,38.42Zm-4.03-4.4A5.05,5.05,0,0,1,28,35.908c1.2,2.1-.952,3.021-3.267,2.247a3.206,3.206,0,0,0-2.814-2.234,5.342,5.342,0,0,0,.987-2.733A6.1,6.1,0,0,1,25.878,34.018Zm-7.271,7.273-.054-.038a3.533,3.533,0,0,0-.152-2.263c.152-.122.336-.194.933-.628a4.578,4.578,0,0,1,1.784-.565,1.6,1.6,0,0,1,1.77.834c-2.454-.239-3.993,1.05-4.28,2.661Zm-7.463-3.724a5.3,5.3,0,0,0-.2-1.394,6.224,6.224,0,0,0,1.858.546c.01.024-.791.363-1.656.848Zm3.82-.884a1.691,1.691,0,0,1-.372-1.847,6.233,6.233,0,0,1,1.935-2.1c2.225-1.752,5.172-1.49,4.336,1.077a6.214,6.214,0,0,1-2.555,2.946,7.8,7.8,0,0,0-.891.59c-.985.547-1.581.444-2.453-.663Zm3.156-10.407c2.976,0,3.671.2,3.671,2.137a1.65,1.65,0,0,1-.768,1.63,5.2,5.2,0,0,0-4.307.334,4.889,4.889,0,0,1-.664-.218A8.4,8.4,0,0,0,14.659,29.1c-.877-1.4,1.126-2.821,3.462-2.821Zm-7.988,3.087a5.18,5.18,0,0,1,2.547.758,9.716,9.716,0,0,1,2.169,1.528,6.057,6.057,0,0,0-2.222,3.113,8.232,8.232,0,0,1-2.12-.961c-2.545-1.5-3.252-4.437-.374-4.437ZM5.574,35.592c2.914,0,3.641.19,3.67,2.02-1.729-1.455-3.668-.475-5.63.554a7.789,7.789,0,0,0-1.107.7c-1.72-1.529.49-3.278,3.067-3.278Zm.908,8.041c-2.517,1.32-5.355.513-4.066-1.853A5.05,5.05,0,0,1,4.5,39.85a7.176,7.176,0,0,1,2.761-1.069c.584,0,.975.342,1.393,1.089a4.1,4.1,0,0,0-.672,2.842,10.547,10.547,0,0,1-1.5.922Zm4.957-.093c-2.69-.286-1.719-3.083.788-4.4.667-.35,1.209-.62,1.663-.8a3.458,3.458,0,0,0,2.7,1.225c.421.926.39,1.91-2.376,3.36a5.051,5.051,0,0,1-2.772.614Zm6.774,2.806c-.26,2.828-2.478,4.775-3.765,2.406a5.989,5.989,0,0,1-.4-3.684,10.6,10.6,0,0,0,3.534-2.185C18.1,43.321,18.4,44.259,18.213,46.347Zm8.73-1.379a1.689,1.689,0,0,1-1.587,1.015A6.233,6.233,0,0,1,22.7,44.94a5.051,5.051,0,0,1-1.981-2.034c-1.168-2.427,1.7-3.093,4.154-1.645C27.2,42.64,28,43.181,26.943,44.968Z" transform="translate(2029 5207.307)" fill="#848484"/></g></svg>