<svg xmlns="http://www.w3.org/2000/svg" width="75" height="75" viewBox="0 0 75 75"><g transform="translate(-2007 -5361)"><g transform="translate(2007 5361)"><path d="M37.5,0A37.5,37.5,0,1,1,0,37.5,37.5,37.5,0,0,1,37.5,0Z" fill="#f0d155"/><text transform="translate(38 51)" fill="#848484" font-size="12" font-family="Avenir-Black, Avenir" font-weight="800" letter-spacing="0.02em"><tspan x="-27.51" y="0">veganesa</tspan></text><text transform="translate(38 64)" fill="#848484" font-size="12" font-family="Avenir-Black, Avenir" font-weight="800" letter-spacing="0.02em"><tspan x="-10.896" y="0">$20</tspan></text></g><path d="M45.6,14.81l-.048-.032a3.9,3.9,0,0,1-1.7-2.485L43.12,8.765a.421.421,0,0,0,.326-.41V.422A.422.422,0,0,0,43.024,0H37.357a.422.422,0,0,0-.421.422V8.354a.421.421,0,0,0,.346.414l-.56,3.354a3.921,3.921,0,0,1-1.819,2.7,4.752,4.752,0,0,0-2.264,4.395l.133,1.908.1,1.386.553,7.956a.422.422,0,0,0,.421.393h12.7a.422.422,0,0,0,.421-.393l.788-11.334A4.771,4.771,0,0,0,45.6,14.81ZM37.78,6.638H42.6V7.932H37.78Zm0-3.657H42.6V5.795H37.78ZM42.6.844V2.138H37.78V.844Zm-7.257,14.7a4.765,4.765,0,0,0,2.211-3.28l.58-3.485H42.26l.769,3.689a4.735,4.735,0,0,0,2.06,3.019l.048.032a3.926,3.926,0,0,1,1.769,3.557l-.11,1.6H43.164a2.981,2.981,0,0,0-5.946,0H33.585l-.105-1.516a3.911,3.911,0,0,1,1.865-3.617Zm7.83,5.976h3.562l-.1,1.447H43.174ZM38.05,23.386v-2.5a2.14,2.14,0,1,1,4.28,0v2.893a2.14,2.14,0,0,1-4.28,0Zm-4.406-1.868h3.562v1.447H33.745Zm12.5,8.5H34.236L33.8,23.808h3.4a2.982,2.982,0,1,0,5.965,0h3.4Z" transform="translate(2004.634 5369.57)" fill="#848484"/></g></svg>