<svg xmlns="http://www.w3.org/2000/svg" width="75" height="75" viewBox="0 0 75 75"><g transform="translate(-1920 -5361)"><g transform="translate(1920 5361)"><path d="M37.5,0A37.5,37.5,0,1,1,0,37.5,37.5,37.5,0,0,1,37.5,0Z" fill="#f0d155"/><text transform="translate(38 51)" fill="#848484" font-size="12" font-family="Avenir-Black, Avenir" font-weight="800" letter-spacing="0.02em"><tspan x="-31.404" y="0">guacamole</tspan></text><text transform="translate(38 64)" fill="#848484" font-size="12" font-family="Avenir-Black, Avenir" font-weight="800" letter-spacing="0.02em"><tspan x="-10.896" y="0">$50</tspan></text></g><g transform="translate(1943 5360.102)"><g transform="translate(4.517 23.961)"><path d="M70.594,182.819h-.2A6.4,6.4,0,0,0,64,189.213v2.422a6.4,6.4,0,0,0,6.394,6.392h.2a6.4,6.4,0,0,0,6.394-6.392v-2.422A6.4,6.4,0,0,0,70.594,182.819Zm5.265,8.816a5.271,5.271,0,0,1-5.265,5.263h-.2a5.271,5.271,0,0,1-5.265-5.263v-2.422a5.271,5.271,0,0,1,5.265-5.265h.2a5.271,5.271,0,0,1,5.265,5.265Z" transform="translate(-64.001 -182.819)" fill="#848484"/></g><g transform="translate(11.11 26.22)"><path d="M157.409,214.819v1.129a3.01,3.01,0,0,1,3.006,3.006h1.129A4.14,4.14,0,0,0,157.409,214.819Z" transform="translate(-157.409 -214.819)" fill="#848484"/></g><g transform="translate(14.116 31.66)"><g transform="translate(0 0)"><rect width="1.129" height="1.117" fill="#848484"/></g></g><g transform="translate(0 11.898)"><g transform="translate(0 0)"><path d="M30.008,31.6a12.231,12.231,0,0,1-1.73-1.1,10.118,10.118,0,0,1-1.063-.966l-.339-.355a19.472,19.472,0,0,0-6.3-4.414,22.367,22.367,0,0,0-1.008-2.344l-.253-.508a11.822,11.822,0,0,1-.641-1.545,14.213,14.213,0,0,1-.521-2.331,7.215,7.215,0,0,0-7.17-6.144,7.3,7.3,0,0,0-7.171,6.144,14.253,14.253,0,0,1-.522,2.331,11.894,11.894,0,0,1-.64,1.545l-.254.508A22.727,22.727,0,0,0,0,32.54,10.946,10.946,0,0,0,14.773,42.825a19.53,19.53,0,0,0,7.037.445l.486-.056a9.743,9.743,0,0,1,1.432-.068,12.2,12.2,0,0,1,2.033.256,6.44,6.44,0,0,0,1.234.12,6.3,6.3,0,0,0,5.941-4.2A6.384,6.384,0,0,0,30.008,31.6ZM10.976,42.388A9.858,9.858,0,0,1,1.13,32.54,21.594,21.594,0,0,1,3.4,22.93l.254-.508a13.065,13.065,0,0,0,.7-1.694,15.356,15.356,0,0,0,.565-2.515,6.13,6.13,0,0,1,12.113,0,15.339,15.339,0,0,0,.565,2.517,13.008,13.008,0,0,0,.7,1.694l.253.508a21.6,21.6,0,0,1,2.269,9.61A9.858,9.858,0,0,1,10.976,42.388Zm20.9-3.448v0a5.245,5.245,0,0,1-5.9,3.352,13.208,13.208,0,0,0-2.223-.277,10.984,10.984,0,0,0-1.592.076l-.486.056a18.386,18.386,0,0,1-5.205-.123,10.973,10.973,0,0,0,5.48-9.486,22.7,22.7,0,0,0-.9-6.3,18.341,18.341,0,0,1,5.013,3.719l.339.355a11.37,11.37,0,0,0,1.178,1.073,13.216,13.216,0,0,0,1.889,1.2A5.248,5.248,0,0,1,31.874,38.94Z" transform="translate(0 -11.898)" fill="#848484"/></g></g><g transform="translate(27.928 34.075)"><g transform="translate(0 0)"><rect width="1" height="1" transform="translate(0.073 -0.178)" fill="#848484"/></g></g><g transform="translate(29.571 35.718)"><g transform="translate(0 0)"><rect height="1" transform="translate(0.43 0.18)" fill="#848484"/></g></g><g transform="translate(28.749 38.182)"><g transform="translate(0 0)"><rect width="1" height="2" transform="translate(0.251 -0.284)" fill="#848484"/></g></g><g transform="translate(26.285 39.825)"><g transform="translate(0 0)"><rect width="1" height="1" transform="translate(-0.284 0.073)" fill="#848484"/></g></g><g transform="translate(26.285 36.54)"><g transform="translate(0 0)"><rect width="2" height="1" transform="translate(-0.284 0.358)" fill="#848484"/></g></g></g></g></svg>