<svg xmlns="http://www.w3.org/2000/svg" width="75" height="75" viewBox="0 0 75 75"><g transform="translate(-3276 -5011)"><g transform="translate(3276 5011)"><path d="M37.5,0A37.5,37.5,0,1,1,0,37.5,37.5,37.5,0,0,1,37.5,0Z" fill="#f5c6c6"/><text transform="translate(38 52)" fill="#848484" font-size="10" font-family="Avenir-Black, Avenir" font-weight="800" letter-spacing="0.02em"><tspan x="-29.905" y="0">agua del día</tspan></text><text transform="translate(38 64)" fill="#848484" font-size="10" font-family="Avenir-Black, Avenir" font-weight="800" letter-spacing="0.02em"><tspan x="-9.08" y="0">$30</tspan></text></g><g transform="translate(3301.016 5024.691)"><g transform="translate(0 0)"><g transform="translate(0 0)"><path d="M77.614,3.853H69.578A7.2,7.2,0,1,0,58.126,12.3a.479.479,0,0,0,.678,0l1.357-1.357,2.575-2.575v19a1.44,1.44,0,0,0,1.44,1.44H76.654a1.44,1.44,0,0,0,1.44-1.44V4.333A.48.48,0,0,0,77.614,3.853Zm-8.177,2.88h-.966a5.23,5.23,0,0,0-.558-1.92h1.056A6.185,6.185,0,0,1,69.437,6.732ZM58.478,11.271a6.236,6.236,0,1,1,9.988-7.419h-1.18a5.279,5.279,0,0,0-8.311,6.513q.09.114.185.223Zm9.031-4.539H63.7V4.812H66.8A4.285,4.285,0,0,1,67.509,6.732Zm-4.772-2.4V7.013L59.841,9.908a4.316,4.316,0,0,1,6.08-6.056H63.216A.48.48,0,0,0,62.736,4.333Zm14.4,23.037a.48.48,0,0,1-.48.48H64.176a.48.48,0,0,1-.48-.48V26.4a2.375,2.375,0,0,0,1.44.492H75.694a2.375,2.375,0,0,0,1.44-.492Zm0-2.88a1.44,1.44,0,0,1-1.44,1.44H65.136a1.44,1.44,0,0,1-1.44-1.44V9.612H77.134Zm0-15.838H63.7v-.96h6.239a.48.48,0,0,0,.48-.48,7.157,7.157,0,0,0-.42-2.4h7.139Z" transform="translate(-56.005 0)" fill="#848484"/></g></g><g transform="translate(19.21 18.251)"><path d="M376.7,304.221a.48.48,0,0,0-.48.48v3.36a.48.48,0,0,0,.96,0V304.7A.48.48,0,0,0,376.7,304.221Z" transform="translate(-376.217 -304.221)" fill="#848484"/></g><g transform="translate(19.21 23.53)"><path d="M376.7,392.221a.48.48,0,0,0-.48.48v.48a.48.48,0,1,0,.96,0v-.48A.48.48,0,0,0,376.7,392.221Z" transform="translate(-376.217 -392.221)" fill="#848484"/></g></g></g></svg>