<svg xmlns="http://www.w3.org/2000/svg" width="75" height="75" viewBox="0 0 75 75"><g transform="translate(-90 -797)"><g transform="translate(90 797)"><path d="M37.5,0A37.5,37.5,0,1,1,0,37.5,37.5,37.5,0,0,1,37.5,0Z" fill="#f5c6c6"/><text transform="translate(38 51)" fill="#848484" font-size="10" font-family="Avenir-Black, Avenir" font-weight="800" letter-spacing="0.02em"><tspan x="-33.42" y="0">leche de coco</tspan></text><text transform="translate(38 62)" fill="#848484" font-size="10" font-family="Avenir-Black, Avenir" font-weight="800" letter-spacing="0.02em"><tspan x="-9.08" y="0">$20</tspan></text></g><g transform="translate(37.601 813.725)"><g transform="translate(85.333)"><g transform="translate(0)"><circle cx="0.495" cy="0.495" r="0.495" transform="translate(7.927 18.828)" fill="#848484"/><circle cx="0.495" cy="0.495" r="0.495" transform="translate(9.909 19.818)" fill="#848484"/><circle cx="0.495" cy="0.495" r="0.495" transform="translate(8.423 20.809)" fill="#848484"/><path d="M97.224,13.028V9.218a3.838,3.838,0,0,0-1.616-3.127,2.993,2.993,0,0,1-1.357-2.413V2.973a.5.5,0,0,0,.5-.5V.5a.5.5,0,0,0-.5-.5H88.306a.5.5,0,0,0-.5.5V2.477a.5.5,0,0,0,.5.5v.706a2.993,2.993,0,0,1-1.357,2.413,3.838,3.838,0,0,0-1.616,3.127V21.8a1.984,1.984,0,0,0,1.982,1.982h8.918c3.01,0,4.955-1.8,4.955-4.588C101.188,16.631,99.519,13.705,97.224,13.028ZM88.8.991h4.955v.991H88.8ZM87.522,6.9A3.967,3.967,0,0,0,89.3,3.679V2.973H93.26v.706A3.967,3.967,0,0,0,95.035,6.9a2.848,2.848,0,0,1,1.2,2.319v.19a25.214,25.214,0,0,1-4.866-.482,26.3,26.3,0,0,0-4.92-.5A2.839,2.839,0,0,1,87.522,6.9Zm-.207,15.892a.992.992,0,0,1-.991-.991V9.419A25.214,25.214,0,0,1,91.19,9.9a26.408,26.408,0,0,0,5.044.5v2.483c-2.79,0-4.955,3.393-4.955,6.312a4.318,4.318,0,0,0,1.7,3.6H87.315Zm8.918,0c-1.916,0-3.964-.945-3.964-3.6,0-2.41,1.768-5.321,3.964-5.321s3.964,2.911,3.964,5.321C100.2,21.846,98.149,22.791,96.233,22.791Z" transform="translate(-85.333)" fill="#848484"/></g></g></g></g></svg>