<svg xmlns="http://www.w3.org/2000/svg" width="75" height="75" viewBox="0 0 75 75"><g transform="translate(-235 -802)"><g transform="translate(235 802)"><path d="M37.5,0A37.5,37.5,0,1,1,0,37.5,37.5,37.5,0,0,1,37.5,0Z" fill="#f5c6c6"/><text transform="translate(38 51)" fill="#848484" font-size="10" font-family="Avenir-Black, Avenir" font-weight="800" letter-spacing="0.02em"><tspan x="-16.25" y="0">té chai</tspan></text><text transform="translate(38 61)" fill="#848484" font-size="10" font-family="Avenir-Black, Avenir" font-weight="800" letter-spacing="0.02em"><tspan x="-9.08" y="0">$60</tspan></text></g><g transform="translate(263.125 822.242)"><path d="M19.681,55.841h-.709v-.47a1.12,1.12,0,0,0-1.118-1.118H10.418a.355.355,0,1,0,0,.71h7.436a.409.409,0,0,1,.409.409v1.391H5.119v-1.8H8.762a.355.355,0,1,0,0-.71h-1.7v-.5a1.325,1.325,0,0,0-2.65,0v.5H1.118A1.12,1.12,0,0,0,0,55.371v7.555a6.363,6.363,0,0,0,3.44,5.647H.944a.646.646,0,0,0-.585.92,6.362,6.362,0,0,0,1.017,1.528,2.021,2.021,0,0,0,1.5.671H16.1a2.021,2.021,0,0,0,1.5-.671,6.36,6.36,0,0,0,1.017-1.528.646.646,0,0,0-.585-.92h-2.5a6.394,6.394,0,0,0,1.746-1.331h2.4A4.548,4.548,0,0,0,24.224,62.7V60.384a4.548,4.548,0,0,0-4.543-4.543ZM5.119,53.754a.616.616,0,0,1,1.231,0v.5H5.119ZM.71,55.371a.409.409,0,0,1,.409-.409H4.409v1.8H.71ZM17.926,69.283a5.652,5.652,0,0,1-.858,1.263,1.311,1.311,0,0,1-.973.436H2.877a1.311,1.311,0,0,1-.973-.436,5.655,5.655,0,0,1-.858-1.263Zm-5.311-.71H6.357A5.654,5.654,0,0,1,.71,62.926V57.472h3.7v.6a1.243,1.243,0,0,0-.635.436L2.749,59.839a1.351,1.351,0,0,0-.28.821v3.579a.821.821,0,0,0,.82.82H6.238a.821.821,0,0,0,.82-.82v-.787a.355.355,0,1,0-.71,0v.787a.11.11,0,0,1-.11.11H3.289a.11.11,0,0,1-.11-.11V60.66a.638.638,0,0,1,.132-.387l1.024-1.328a.544.544,0,0,1,.074-.077v.756a1.091,1.091,0,1,0,.71,0v-.756a.55.55,0,0,1,.073.077l1.024,1.328a.638.638,0,0,1,.132.387V61.8a.355.355,0,0,0,.71,0V60.66a1.351,1.351,0,0,0-.28-.821L5.754,58.511a1.242,1.242,0,0,0-.635-.436v-.6H18.263v5.454A5.654,5.654,0,0,1,12.615,68.573Zm-7.851-8.3a.381.381,0,1,1-.381.381A.382.382,0,0,1,4.764,60.274Zm14.208,2.652V58.341h.709a2.045,2.045,0,0,1,2.043,2.043V62.7a2.045,2.045,0,0,1-2.043,2.043h-.973A6.336,6.336,0,0,0,18.972,62.926Zm4.542-.227a3.838,3.838,0,0,1-3.834,3.834h-1.83a6.322,6.322,0,0,0,.6-1.081h1.231A2.756,2.756,0,0,0,22.434,62.7V60.384a2.756,2.756,0,0,0-2.753-2.753h-.709V56.551h.709a3.838,3.838,0,0,1,3.834,3.834Z" transform="translate(0 -52.429)" fill="#848484"/></g></g></svg>