<svg xmlns="http://www.w3.org/2000/svg" width="75" height="75" viewBox="0 0 75 75"><g transform="translate(-93 -710)"><g transform="translate(93 710)"><path d="M37.5,0A37.5,37.5,0,1,1,0,37.5,37.5,37.5,0,0,1,37.5,0Z" fill="#f5c6c6"/><text transform="translate(38 54)" fill="#848484" font-size="10" font-family="Avenir-Black, Avenir" font-weight="800" letter-spacing="0.02em"><tspan x="-17.915" y="0">tapioca</tspan></text><text transform="translate(38 67)" fill="#848484" font-size="10" font-family="Avenir-Black, Avenir" font-weight="800" letter-spacing="0.02em"><tspan x="-9.08" y="0">$80</tspan></text></g><g transform="translate(54.127 722.539)"><g transform="translate(66.777 0)"><circle cx="0.608" cy="0.608" r="0.608" transform="translate(2.721 13.286)" fill="#848484"/><path d="M148.536,248.584a.608.608,0,1,0,.608.608A.608.608,0,0,0,148.536,248.584Z" transform="translate(-142.995 -233.475)" fill="#848484"/><circle cx="0.608" cy="0.608" r="0.608" transform="translate(12.136 18.303)" fill="#848484"/><circle cx="0.608" cy="0.608" r="0.608" transform="translate(7.035 22.82)" fill="#848484"/><circle cx="0.608" cy="0.608" r="0.608" transform="translate(9.871 14.501)" fill="#848484"/><circle cx="0.608" cy="0.608" r="0.608" transform="translate(8.25 21.186)" fill="#848484"/><circle cx="0.608" cy="0.608" r="0.608" transform="translate(13.352 24.229)" fill="#848484"/><circle cx="0.608" cy="0.608" r="0.608" transform="translate(2.721 20.237)" fill="#848484"/><path d="M86.6,10.917H84.015V9.575a2.686,2.686,0,0,0-.457-1.5l-.873-1.3A1.6,1.6,0,0,0,82.343,3.6H79.69l.334-1.981a1.391,1.391,0,1,0-2.743-.462L76.87,3.6H68.449a1.6,1.6,0,0,0-.342,3.169l-.873,1.3a2.686,2.686,0,0,0-.457,1.5V25.9a3.091,3.091,0,0,0,2.473,3.024v1.007a1.187,1.187,0,0,0,1.185,1.185h1.359a.455.455,0,0,0,0-.911H70.435a.275.275,0,0,1-.274-.274v-.945h10.47v.946a.275.275,0,0,1-.274.274H73.939a.455.455,0,1,0,0,.911h6.417a1.187,1.187,0,0,0,1.185-1.185V28.928a3.1,3.1,0,0,0,2.142-1.637H86.6a3.181,3.181,0,0,0,3.177-3.177V14.094A3.18,3.18,0,0,0,86.6,10.917ZM82.8,8.581a1.778,1.778,0,0,1,.3.994v.631a5.874,5.874,0,0,1-2.35,1.258,7.775,7.775,0,0,1-2.43.229l.822-4.868h2.477ZM78.179,1.311a.479.479,0,0,1,.473-.4.48.48,0,0,1,.473.56L78.766,3.6h-.972Zm-10.423,3.9a.693.693,0,0,1,.692-.692H82.343a.692.692,0,1,1,0,1.384H68.449A.693.693,0,0,1,67.757,5.206ZM78.222,6.825l-.807,4.781c-.313-.043-.626-.1-.939-.164l.776-4.617h.969ZM67.991,8.581l1.178-1.756h7.16l-.741,4.407c-.82-.215-1.626-.479-2.427-.75a23.343,23.343,0,0,0-5.413-1.36A1.783,1.783,0,0,1,67.991,8.581Zm15.568,8.983a.455.455,0,0,0-.455.455V25.9a2.177,2.177,0,0,1-2.175,2.175H69.863A2.177,2.177,0,0,1,67.688,25.9s0-15.873,0-15.873a15.085,15.085,0,0,1,2.788.549c2.76.781,5.431,2.033,8.359,2.033a8.313,8.313,0,0,0,2.154-.269A6.771,6.771,0,0,0,83.1,11.36v4.52a.455.455,0,1,0,.911,0v-1.8h2.263a.575.575,0,0,1,.575.575v8.908a.575.575,0,0,1-.575.575H84.015V18.019a.455.455,0,0,0-.455-.455Zm5.309,6.55A2.269,2.269,0,0,1,86.6,26.379H83.978a3.1,3.1,0,0,0,.037-.476v-.861h2.263a1.487,1.487,0,0,0,1.486-1.485V14.65a1.487,1.487,0,0,0-1.486-1.486H84.015V11.828H86.6a2.268,2.268,0,0,1,2.266,2.266V24.113Z" transform="translate(-66.777 0)" fill="#848484"/></g></g></g></svg>