<svg xmlns="http://www.w3.org/2000/svg" width="75" height="75" viewBox="0 0 75 75"><g transform="translate(-3281 -5353)"><g transform="translate(3281 5353)"><path d="M37.5,0A37.5,37.5,0,1,1,0,37.5,37.5,37.5,0,0,1,37.5,0Z" fill="#ffcc6c"/><text transform="translate(38 54)" fill="#848484" font-size="10" font-family="Avenir-Black, Avenir" font-weight="800" letter-spacing="0.02em"><tspan x="-21.26" y="0">ensalada</tspan></text><text transform="translate(38 66)" fill="#848484" font-size="10" font-family="Avenir-Black, Avenir" font-weight="800" letter-spacing="0.02em"><tspan x="-9.08" y="0">$70</tspan></text></g><g transform="translate(3303.983 5368.169)"><g transform="translate(0.017 17.759)"><path d="M27.586,324.28H.484a.467.467,0,0,0-.467.467A9.824,9.824,0,0,0,9.83,334.56H18.24a9.824,9.824,0,0,0,9.813-9.813A.467.467,0,0,0,27.586,324.28Zm-9.345,9.345H9.83a8.889,8.889,0,0,1-8.866-8.411H27.106A8.889,8.889,0,0,1,18.24,333.625Z" transform="translate(-0.017 -324.28)" fill="#848484"/></g><g transform="translate(9.829 0.001)"><path d="M193.222,6.548c0-.034,0-.068,0-.12a1.94,1.94,0,0,0-1.308-1.65l.529-.529A2.5,2.5,0,0,0,192.646.9a2.456,2.456,0,0,0-3.454-.334c-.059.049-.117.1-.174.158l-.575.583A1.95,1.95,0,0,0,186.778,0a1.868,1.868,0,0,0-1.967,1.767c0,.034,0,.068,0,.1v.716a1.858,1.858,0,0,0-.933-.251c-.034,0-.068,0-.12,0a1.936,1.936,0,0,0-1.751,1.947v.636a1.863,1.863,0,0,0-.933-.25c-.034,0-.068,0-.12,0A1.937,1.937,0,0,0,179.2,6.624v6.93a.467.467,0,0,0,.467.467h7.944a1.868,1.868,0,0,0,1.618-2.8h.631a1.934,1.934,0,0,0,1.956-1.77,1.857,1.857,0,0,0-.256-1.046,1.869,1.869,0,0,0,1.66-1.856Zm-1.209.66a.93.93,0,0,1-.661.272h-1.4a.467.467,0,1,0,0,.935H190a.933.933,0,0,1,.885.965,1,1,0,0,1-1.016.9h-2.257a.467.467,0,0,0,0,.935.935.935,0,0,1,0,1.869h-7.476V6.616a1,1,0,0,1,.885-1.007h.051a.935.935,0,0,1,.933.933v0a.467.467,0,0,0,.467.467h0a.467.467,0,0,0,.467-.467h0V4.28a1,1,0,0,1,.885-1.007h.05a.936.936,0,0,1,.934.934v0a.467.467,0,0,0,.467.467h0a.467.467,0,0,0,.467-.467h0V1.821a.926.926,0,0,1,.964-.885,1,1,0,0,1,.9,1.017V2.34a.467.467,0,0,0,.8.328l1.268-1.286q.052-.051.107-.1a1.519,1.519,0,0,1,2.132.2,1.569,1.569,0,0,1-.137,2.1l-1.229,1.229a.467.467,0,0,0,.33.8h.413a1,1,0,0,1,.99.885v.051A.929.929,0,0,1,192.013,7.207Z" transform="translate(-179.202 -0.001)" fill="#848484"/></g><g transform="translate(7.164 2.943)"><rect width="18.503" height="0.935" transform="translate(0 13.083) rotate(-45)" fill="#848484"/></g><g transform="translate(17.305 3.744)"><rect width="0.935" height="2.336" fill="#848484"/></g><g transform="translate(14.501 6.08)"><rect width="0.935" height="2.804" fill="#848484"/></g><g transform="translate(11.698 8.412)"><rect width="0.935" height="3.271" fill="#848484"/></g><g transform="translate(17.772 5.613)"><rect width="2.336" height="0.935" fill="#848484"/></g><g transform="translate(14.969 8.412)"><rect width="2.804" height="0.935" fill="#848484"/></g><g transform="translate(12.165 11.216)"><rect width="3.271" height="0.935" fill="#848484"/></g><g transform="translate(1.709 1.066)"><path d="M37.945,20.538l0,0a2.156,2.156,0,0,0-2.986-.6c-.031.02-.061.042-.1.067l-.168.128-.162-.116a2.149,2.149,0,1,0-2.561,3.421l.393.307v.239a2.336,2.336,0,1,0,4.672,0v-.239l.414-.323A2.151,2.151,0,0,0,37.945,20.538ZM36.88,22.684l-.6.467a.467.467,0,0,0-.179.368v.467a1.4,1.4,0,0,1-2.8,0v-.467a.466.466,0,0,0-.179-.368l-.6-.467a.46.46,0,0,0-.057-.038,1.215,1.215,0,1,1,1.445-1.93.492.492,0,0,0,.051.042l.467.336a.467.467,0,0,0,.556-.007l.493-.371a1.208,1.208,0,0,1,1.4,1.966Z" transform="translate(-30.916 -19.441)" fill="#848484"/></g><g transform="translate(10.296 0.468)"><rect width="0.935" height="0.935" fill="#848484"/></g><g transform="translate(13.1 15.421)"><rect width="0.935" height="0.935" fill="#848484"/></g><g transform="translate(25.249 2.807)"><path d="M460.787,51.24v.935a.935.935,0,1,1,0,1.869v.935a1.869,1.869,0,1,0,0-3.738Z" transform="translate(-460.787 -51.24)" fill="#848484"/></g><g transform="translate(0.951 7.015)"><rect width="0.935" height="0.935" fill="#848484"/></g><g transform="translate(0.017 5.146)"><rect width="0.935" height="0.935" fill="#848484"/></g><g transform="translate(16.371 14.956)"><path d="M300.533,273.083a1.871,1.871,0,0,0-1.869,1.869h.935a.935.935,0,1,1,1.869,0h.935A1.871,1.871,0,0,0,300.533,273.083Z" transform="translate(-298.664 -273.083)" fill="#848484"/></g><g transform="translate(0.017 9.348)"><path d="M5.625,172.092H5.566a1.87,1.87,0,0,0-3.62,0H1.887a1.869,1.869,0,1,0,0,3.738H5.625a1.869,1.869,0,1,0,0-3.738Zm0,2.8H1.887a.935.935,0,1,1,0-1.869h.467a.467.467,0,0,0,.467-.467.935.935,0,0,1,1.869,0,.467.467,0,0,0,.467.467h.467a.935.935,0,1,1,0,1.869Z" transform="translate(-0.018 -170.69)" fill="#848484"/></g><g transform="translate(2.353 13.554)"><path d="M45.017,247.485H43.148a.467.467,0,0,0-.467.467v1.869a.467.467,0,0,0,.467.467h1.869a.467.467,0,0,0,.467-.467v-1.869A.467.467,0,0,0,45.017,247.485Zm-.467,1.869h-.935v-.935h.935v.935Z" transform="translate(-42.681 -247.485)" fill="#848484"/></g><g transform="translate(23.38 12.152)"><path d="M428.058,221.887a1.4,1.4,0,1,0,1.4,1.4A1.4,1.4,0,0,0,428.058,221.887Zm0,1.87a.467.467,0,1,1,.467-.467A.468.468,0,0,1,428.058,223.757Z" transform="translate(-426.656 -221.887)" fill="#848484"/></g><g transform="translate(21.511 10.283)"><path d="M395.8,187.756a3.271,3.271,0,1,0,3.271,3.271A3.275,3.275,0,0,0,395.8,187.756Zm0,5.608a2.336,2.336,0,1,1,2.336-2.336A2.339,2.339,0,0,1,395.8,193.364Z" transform="translate(-392.525 -187.756)" fill="#848484"/></g></g></g></svg>