<svg xmlns="http://www.w3.org/2000/svg" width="75" height="75" viewBox="0 0 75 75"><g transform="translate(-3181 -5353)"><g transform="translate(3181 5353)"><path d="M37.5,0A37.5,37.5,0,1,1,0,37.5,37.5,37.5,0,0,1,37.5,0Z" fill="#ffcc6c"/><text transform="translate(38 51)" fill="#848484" font-size="10" font-family="Avenir-Black, Avenir" font-weight="800" letter-spacing="0.02em"><tspan x="-20.125" y="0">hummus</tspan></text><text transform="translate(38 65)" fill="#848484" font-size="10" font-family="Avenir-Black, Avenir" font-weight="800" letter-spacing="0.02em"><tspan x="-9.08" y="0">$50</tspan></text></g><path d="M50.193,51.578H45.139a13.07,13.07,0,0,0,5.224-10.46V38.633a.587.587,0,0,0-.588-.588h-.752a5.352,5.352,0,0,0-4.789-4.731,2.36,2.36,0,0,0-2.288-1.793h-4.8a.614.614,0,0,1-.536-.312.566.566,0,0,1,0-.581.588.588,0,0,0-.512-.876H34.352a4.13,4.13,0,0,0-4.086,3.565,5.352,5.352,0,0,0-4.759,4.728h-.752a.587.587,0,0,0-.588.588v2.485a13.07,13.07,0,0,0,5.224,10.46H24.338a.588.588,0,0,0,0,1.175H50.193a.588.588,0,1,0,0-1.175ZM30.815,34.464a.587.587,0,0,0,.588-.588,2.952,2.952,0,0,1,2.949-2.949h1a1.754,1.754,0,0,0,.24.871,1.8,1.8,0,0,0,1.552.9h4.8a1.182,1.182,0,0,1,1.181,1.181.587.587,0,0,0,.588.588,4.172,4.172,0,0,1,4.122,3.581H26.693a4.172,4.172,0,0,1,4.122-3.581ZM25.342,39.22H49.188v1.31H25.342Zm.02,2.485H49.169a11.9,11.9,0,0,1-6.188,9.872H31.551a11.9,11.9,0,0,1-6.188-9.871Z" transform="translate(3181.25 5341.747)" fill="#848484"/></g></svg>