<svg xmlns="http://www.w3.org/2000/svg" width="75" height="75" viewBox="0 0 75 75"><g transform="translate(-3381 -5353)"><g transform="translate(3381 5353)"><path d="M37.5,0A37.5,37.5,0,1,1,0,37.5,37.5,37.5,0,0,1,37.5,0Z" fill="#ffcc6c"/><text transform="translate(38 51)" fill="#848484" font-size="10" font-family="Avenir-Black, Avenir" font-weight="800" letter-spacing="0.02em"><tspan x="-14.385" y="0">papas</tspan></text><text transform="translate(38 65)" fill="#848484" font-size="10" font-family="Avenir-Black, Avenir" font-weight="800" letter-spacing="0.02em"><tspan x="-6.02" y="0">$5</tspan></text></g><g transform="translate(3356.868 5369.17)"><path d="M72.608,8.794a.519.519,0,0,0-.394-.181h-.167V.861A.862.862,0,0,0,71.186,0h-2a.862.862,0,0,0-.861.861V2.234H66.668V.861A.862.862,0,0,0,65.807,0h-2a.862.862,0,0,0-.861.861V3.633h-1.65V.861A.862.862,0,0,0,60.429,0h-2a.862.862,0,0,0-.862.861V2.234h-1.65V.861A.862.862,0,0,0,55.052,0h-2a.862.862,0,0,0-.861.861V8.613h-.167a.519.519,0,0,0-.513.6l2.541,16.929a.519.519,0,0,0,.513.442H69.673a.519.519,0,0,0,.513-.442l1.164-7.751a.519.519,0,0,0-1.027-.154L69.9,21.077a24.857,24.857,0,0,0-15.56,0L52.621,9.652h4.971a4.554,4.554,0,0,0,9.047,0h4.969l-.646,4.189A.519.519,0,1,0,71.989,14l.738-4.787a.519.519,0,0,0-.119-.417ZM69.74,22.118l-.514,3.425H55.007l-.514-3.425A23.869,23.869,0,0,1,69.74,22.118ZM54.874,8.613h-1.65V1.038h1.65Zm2.688,0h-1.65V3.272h1.65Zm2.69,3.495A3.511,3.511,0,0,1,58.6,9.132V1.038h1.652Zm2.688.437a3.5,3.5,0,0,1-1.65,0V4.672h1.65Zm1.038-.437V1.038h1.65V9.132a3.511,3.511,0,0,1-1.652,2.975Zm4.34-3.494h-1.65V3.272H68.32Zm2.688,0h-1.65V1.038h1.65Z" transform="translate(0 0)" fill="#848484"/><path d="M420.5,302.564a.519.519,0,0,0-.519.519v0a.519.519,0,1,0,.519-.522Z" transform="translate(-349.355 -286.856)" fill="#848484"/></g></g></svg>