<svg xmlns="http://www.w3.org/2000/svg" width="139" height="139" viewBox="0 0 139 139"><path d="M112.984,216.492a3.159,3.159,0,0,0-6.318,0c0,8.3,9.15,19.686,10.193,20.96a3.161,3.161,0,0,0,4.886-4.011C118.359,229.314,112.984,221.064,112.984,216.492Z" transform="translate(-75.075 -150.151)" fill="#fff"/><path d="M321.972,213.333a3.157,3.157,0,0,0-3.159,3.159c0,4.557-5.374,12.815-8.761,16.953a3.16,3.16,0,0,0,4.887,4.007c1.043-1.274,10.193-12.664,10.193-20.96A3.157,3.157,0,0,0,321.972,213.333Z" transform="translate(-217.722 -150.151)" fill="#fff"/><path d="M227.159,213.333A3.157,3.157,0,0,0,224,216.492v18.955a3.159,3.159,0,0,0,6.318,0V216.492A3.158,3.158,0,0,0,227.159,213.333Z" transform="translate(-157.659 -150.151)" fill="#fff"/><path d="M104.25,12.636a33.088,33.088,0,0,0-5.993.639,37.785,37.785,0,0,0-57.515,0,33.12,33.12,0,0,0-5.993-.639A34.736,34.736,0,0,0,19.029,78.354L18.967,126.1A12.892,12.892,0,0,0,31.856,139h75.3a12.9,12.9,0,0,0,12.889-12.889v-47.8a34.731,34.731,0,0,0-15.8-65.671Zm9.477,113.474a6.581,6.581,0,0,1-6.571,6.571h-75.3a6.573,6.573,0,0,1-6.571-6.58l.017-12.375h88.426Zm1.956-52.721a2.833,2.833,0,0,0-.472.244,3.162,3.162,0,0,0-1.45,2.218,3.054,3.054,0,0,0-.034.531v31.026H25.309l.041-30.983a3.253,3.253,0,0,0-.031-.518,3.166,3.166,0,0,0-.5-1.308,3.13,3.13,0,0,0-.938-.916,3.307,3.307,0,0,0-.5-.256A28.419,28.419,0,0,1,34.75,18.955c.613,0,1.26.074,1.894.124a37.634,37.634,0,0,0-5.053,18.83,3.159,3.159,0,0,0,6.318,0,31.591,31.591,0,1,1,63.182,0,3.159,3.159,0,1,0,6.318,0,37.635,37.635,0,0,0-5.053-18.83c.635-.05,1.282-.124,1.894-.124A28.415,28.415,0,0,1,115.683,73.39Z" fill="#fff"/></svg>