<svg xmlns="http://www.w3.org/2000/svg" width="215" height="215" viewBox="0 0 215 215"><g transform="translate(-206.604 -300.604)"><g transform="translate(206.604 300.604)" fill="#f5c6c6"><path d="M 107.5 214.5 C 100.239860534668 214.5 92.98441314697266 213.7686157226562 85.93524932861328 212.3261413574219 C 79.06544494628906 210.9203643798828 72.30811309814453 208.8227844238281 65.85091400146484 206.0916137695312 C 59.51083374023438 203.4100036621094 53.39577865600586 200.0908355712891 47.67564010620117 196.2263946533203 C 42.00969314575195 192.3985290527344 36.68166732788086 188.0025329589844 31.8395824432373 183.1604156494141 C 26.99747276306152 178.3183288574219 22.60147285461426 172.9903106689453 18.77361106872559 167.3243560791016 C 14.90916633605957 161.6042175292969 11.59000015258789 155.4891662597656 8.908389091491699 149.1490783691406 C 6.17722225189209 142.69189453125 4.079638957977295 135.9345550537109 2.673861026763916 129.0647430419922 C 1.231388926506042 122.0155868530273 0.5 114.760139465332 0.5 107.5 C 0.5 100.239860534668 1.231388926506042 92.98441314697266 2.673861026763916 85.93524932861328 C 4.079638957977295 79.06544494628906 6.17722225189209 72.30811309814453 8.908389091491699 65.85091400146484 C 11.59000015258789 59.51083374023438 14.90916633605957 53.39577865600586 18.77361106872559 47.67564010620117 C 22.60147285461426 42.00969314575195 26.99747276306152 36.68166732788086 31.8395824432373 31.8395824432373 C 36.68166732788086 26.99747276306152 42.00969314575195 22.60147285461426 47.67564010620117 18.77361106872559 C 53.39577865600586 14.90916633605957 59.51083374023438 11.59000015258789 65.85091400146484 8.908389091491699 C 72.30811309814453 6.17722225189209 79.06544494628906 4.079638957977295 85.93524932861328 2.673861026763916 C 92.98441314697266 1.231388926506042 100.239860534668 0.5 107.5 0.5 C 114.760139465332 0.5 122.0155868530273 1.231388926506042 129.0647430419922 2.673861026763916 C 135.9345550537109 4.079638957977295 142.69189453125 6.17722225189209 149.1490783691406 8.908389091491699 C 155.4891662597656 11.59000015258789 161.6042175292969 14.90916633605957 167.3243560791016 18.77361106872559 C 172.9903106689453 22.60147285461426 178.3183288574219 26.99747276306152 183.1604156494141 31.8395824432373 C 188.0025329589844 36.68166732788086 192.3985290527344 42.00969314575195 196.2263946533203 47.67564010620117 C 200.0908355712891 53.39577865600586 203.4100036621094 59.51083374023438 206.0916137695312 65.85091400146484 C 208.8227844238281 72.30811309814453 210.9203643798828 79.06544494628906 212.3261413574219 85.93524932861328 C 213.7686157226562 92.98441314697266 214.5 100.239860534668 214.5 107.5 C 214.5 114.760139465332 213.7686157226562 122.0155868530273 212.3261413574219 129.0647430419922 C 210.9203643798828 135.9345550537109 208.8227844238281 142.69189453125 206.0916137695312 149.1490783691406 C 203.4100036621094 155.4891662597656 200.0908355712891 161.6042175292969 196.2263946533203 167.3243560791016 C 192.3985290527344 172.9903106689453 188.0025329589844 178.3183288574219 183.1604156494141 183.1604156494141 C 178.3183288574219 188.0025329589844 172.9903106689453 192.3985290527344 167.3243560791016 196.2263946533203 C 161.6042175292969 200.0908355712891 155.4891662597656 203.4100036621094 149.1490783691406 206.0916137695312 C 142.69189453125 208.8227844238281 135.9345550537109 210.9203643798828 129.0647430419922 212.3261413574219 C 122.0155868530273 213.7686157226562 114.760139465332 214.5 107.5 214.5 Z" stroke="none"/><path d="M 107.5 1 C 100.2734451293945 1 93.05175018310547 1.72796630859375 86.03547668457031 3.163726806640625 C 79.19802856445312 4.5628662109375 72.47250366210938 6.650588989257812 66.04570007324219 9.368896484375 C 59.73536682128906 12.03794860839844 53.64894104003906 15.341552734375 47.95552062988281 19.18794250488281 C 42.31597900390625 22.99794006347656 37.01272583007812 27.37353515625 32.19314575195312 32.19314575195312 C 27.37353515625 37.01272583007812 22.99794006347656 42.31597900390625 19.18794250488281 47.95552062988281 C 15.341552734375 53.64894104003906 12.03794860839844 59.73536682128906 9.368896484375 66.04570007324219 C 6.650588989257812 72.47250366210938 4.5628662109375 79.19802856445312 3.163726806640625 86.03547668457031 C 1.72796630859375 93.05175018310547 1 100.2734451293945 1 107.5 C 1 114.7265548706055 1.72796630859375 121.9482498168945 3.163726806640625 128.9645385742188 C 4.5628662109375 135.8019714355469 6.650588989257812 142.5274963378906 9.368896484375 148.9543151855469 C 12.03794860839844 155.2646331787109 15.341552734375 161.3510589599609 19.18794250488281 167.0444641113281 C 22.99794006347656 172.6840209960938 27.37353515625 177.9872741699219 32.19314575195312 182.8068542480469 C 37.01272583007812 187.62646484375 42.31597900390625 192.0020599365234 47.95552062988281 195.8120574951172 C 53.64894104003906 199.658447265625 59.73536682128906 202.9620513916016 66.04570007324219 205.631103515625 C 72.47250366210938 208.3494110107422 79.19802856445312 210.4371337890625 86.03547668457031 211.8362731933594 C 93.05175018310547 213.2720336914062 100.2734451293945 214 107.5 214 C 114.7265548706055 214 121.9482498168945 213.2720336914062 128.9645385742188 211.8362731933594 C 135.8019714355469 210.4371337890625 142.5274963378906 208.3494110107422 148.9543151855469 205.631103515625 C 155.2646331787109 202.9620513916016 161.3510589599609 199.658447265625 167.0444641113281 195.8120574951172 C 172.6840209960938 192.0020599365234 177.9872741699219 187.62646484375 182.8068542480469 182.8068542480469 C 187.62646484375 177.9872741699219 192.0020599365234 172.6840209960938 195.8120574951172 167.0444641113281 C 199.658447265625 161.3510589599609 202.9620513916016 155.2646331787109 205.631103515625 148.9543151855469 C 208.3494110107422 142.5274963378906 210.4371337890625 135.8019714355469 211.8362731933594 128.9645385742188 C 213.2720336914062 121.9482498168945 214 114.7265548706055 214 107.5 C 214 100.2734451293945 213.2720336914062 93.05175018310547 211.8362731933594 86.03547668457031 C 210.4371337890625 79.19802856445312 208.3494110107422 72.47250366210938 205.631103515625 66.04570007324219 C 202.9620513916016 59.73536682128906 199.658447265625 53.64894104003906 195.8120574951172 47.95552062988281 C 192.0020599365234 42.31597900390625 187.62646484375 37.01272583007812 182.8068542480469 32.19314575195312 C 177.9872741699219 27.37353515625 172.6840209960938 22.99794006347656 167.0444641113281 19.18794250488281 C 161.3510589599609 15.341552734375 155.2646331787109 12.03794860839844 148.9543151855469 9.368896484375 C 142.5274963378906 6.650588989257812 135.8019714355469 4.5628662109375 128.9645385742188 3.163726806640625 C 121.9482498168945 1.72796630859375 114.7265548706055 1 107.5 1 M 107.5 0 C 166.87060546875 0 215 48.12939453125 215 107.5 C 215 166.87060546875 166.87060546875 215 107.5 215 C 48.12939453125 215 0 166.87060546875 0 107.5 C 0 48.12939453125 48.12939453125 0 107.5 0 Z" stroke="none" fill="#fff"/></g><text transform="translate(309.029 457.564)" fill="#fff" font-size="17" font-family="Avenir-Black, Avenir" font-weight="800" letter-spacing="0.07em"><tspan x="-30.209" y="0">burger</tspan></text><text transform="translate(312.604 437.604)" fill="#fff" font-size="29" font-family="Avenir-Black, Avenir" font-weight="800" letter-spacing="0.15em"><tspan x="-50.33" y="0">vegan</tspan></text><g transform="translate(285.7 352.901)"><path d="M287.123,46.237a23.641,23.641,0,0,1,9.59,3.637,14.948,14.948,0,0,1,5.549,6.4,1.089,1.089,0,1,0,2.006-.846,17.107,17.107,0,0,0-6.336-7.356,25.827,25.827,0,0,0-10.477-3.986,1.089,1.089,0,0,0-.333,2.152Zm0,0" transform="translate(-255.042 -39.274)" fill="#ffc100"/><path d="M99.713,126.708a1.088,1.088,0,1,0,.375-1.3A1.113,1.113,0,0,0,99.713,126.708Zm0,0" transform="translate(-88.788 -111.579)" fill="#ffc100"/><path d="M147.885,89.465a1.088,1.088,0,1,0,.368-1.3A1.112,1.112,0,0,0,147.885,89.465Zm0,0" transform="translate(-131.715 -78.389)" fill="#ffc100"/><path d="M199.651,126.708a1.088,1.088,0,1,0,.375-1.3A1.114,1.114,0,0,0,199.651,126.708Zm0,0" transform="translate(-177.846 -111.579)" fill="#ffc100"/><path d="M55.741,34.5a5.516,5.516,0,0,0-3.682-5.2V26.585a4.675,4.675,0,0,0,.988-.5A4.3,4.3,0,0,0,55,22.473a4.253,4.253,0,0,0-.807-2.505,3.513,3.513,0,0,0,.216-2.015C53.475,12.966,50.273,8.4,45.392,5.1A31.508,31.508,0,0,0,27.871,0,31.508,31.508,0,0,0,10.349,5.1C5.468,8.4,2.267,12.966,1.335,17.952a3.511,3.511,0,0,0,.455,2.479,4.235,4.235,0,0,0-.515,2.041,4.3,4.3,0,0,0,1.951,3.609,4.74,4.74,0,0,0,.458.27V29.31A5.516,5.516,0,0,0,0,34.5v.221a5.493,5.493,0,0,0,1.756,4.026,4.293,4.293,0,0,0,.63,4.859V47.54A7.621,7.621,0,0,0,10,55.152H45.744a7.621,7.621,0,0,0,7.612-7.612V44.105a4.3,4.3,0,0,0,.966-5.694,5.484,5.484,0,0,0,1.42-3.686Zm-2.177,0v.221a3.335,3.335,0,0,1-3.33,3.33H33.352l6.943-6.881h9.939A3.334,3.334,0,0,1,53.564,34.5ZM16.5,31.175l.173.173,1.117,1.116L15.453,34.8l-3.628-3.628Zm10.279,7.2L20.1,31.7h0l-.52-.52H37.2l-7.276,7.2v0l0,0-1.568,1.568ZM3.474,18.352C4.3,13.943,7.174,9.877,11.569,6.9a29.312,29.312,0,0,1,16.3-4.726A29.312,29.312,0,0,1,44.172,6.9c4.4,2.974,7.27,7.04,8.095,11.449a1.368,1.368,0,0,1-1.331,1.6H4.805A1.367,1.367,0,0,1,3.474,18.352Zm.057,3.54a3.545,3.545,0,0,0,1.274.237H50.936a3.551,3.551,0,0,0,1.729-.45,2.111,2.111,0,0,1,.155.794,2.153,2.153,0,0,1-.987,1.8,2.565,2.565,0,0,1-2.193.3c-.363-.115-.705-.263-1.079-.343a5.885,5.885,0,0,0-1.233-.125A5.968,5.968,0,0,0,43.5,25.436a4.017,4.017,0,0,1-5.141,0,6.174,6.174,0,0,0-7.653,0,4.018,4.018,0,0,1-5.141,0,6.176,6.176,0,0,0-7.653,0,4.018,4.018,0,0,1-5.142,0,5.964,5.964,0,0,0-3.827-1.328,5.511,5.511,0,0,0-2.121.4,2.569,2.569,0,0,1-2.385-.233,2.153,2.153,0,0,1-.987-1.8A2.1,2.1,0,0,1,3.531,21.891Zm2.545,4.98A5.289,5.289,0,0,0,7.715,26.5a3.75,3.75,0,0,1,1.67-.192,3.938,3.938,0,0,1,2.131.911,6.174,6.174,0,0,0,7.653,0,4.019,4.019,0,0,1,5.141,0,6.174,6.174,0,0,0,7.653,0,4.019,4.019,0,0,1,5.141,0,6.174,6.174,0,0,0,7.652,0,3.849,3.849,0,0,1,2.571-.93,3.525,3.525,0,0,1,1.3.237,5.043,5.043,0,0,0,1.258.324V29H5.86V26.877C5.932,26.876,6,26.874,6.076,26.871ZM2.177,34.5a3.334,3.334,0,0,1,3.33-3.33H8.746l5.937,5.937a1.089,1.089,0,0,0,1.539,0L19.33,34l4.052,4.052H5.507a3.335,3.335,0,0,1-3.33-3.33Zm1.454,5.4a5.524,5.524,0,0,0,1.876.33H25.559l2.019,2.019a1.1,1.1,0,0,0,1.536,0l2.041-2.023H50.234a5.539,5.539,0,0,0,1.807-.3,2.773,2.773,0,0,0,.36-.143c.037-.019.091-.062.134-.059.06,0,.076.081.1.13a2.107,2.107,0,0,1,.186.83,2.266,2.266,0,0,1-1.687,2.166,2.578,2.578,0,0,1-1.686-.093,5.5,5.5,0,0,0-2.12-.4A5.964,5.964,0,0,0,43.5,43.689a4.017,4.017,0,0,1-5.141,0,6.175,6.175,0,0,0-7.653,0,4.017,4.017,0,0,1-5.141,0,6.175,6.175,0,0,0-7.653,0,4.017,4.017,0,0,1-5.141,0A5.966,5.966,0,0,0,8.945,42.36a5.5,5.5,0,0,0-2.12.4,2.567,2.567,0,0,1-2.21-.126,2.233,2.233,0,0,1-1.139-1.586,2.148,2.148,0,0,1-.006-.609C3.477,40.38,3.577,39.884,3.631,39.9ZM51.178,47.54a5.441,5.441,0,0,1-5.435,5.435H10A5.441,5.441,0,0,1,4.563,47.54V44.958a4.715,4.715,0,0,0,2.778-.07l.056-.019c.084-.029.168-.06.25-.094a3.369,3.369,0,0,1,1.3-.237,3.845,3.845,0,0,1,2.571.93,6.175,6.175,0,0,0,7.653,0,4.019,4.019,0,0,1,5.141,0,6.174,6.174,0,0,0,7.653,0,4.018,4.018,0,0,1,5.141,0,6.174,6.174,0,0,0,7.653,0,3.846,3.846,0,0,1,2.571-.93,3.594,3.594,0,0,1,.963.123c.3.083.58.214.878.3a4.7,4.7,0,0,0,2.01.113V47.54Zm0,0" fill="#fff"/><path d="M225.264,89.464a1.089,1.089,0,1,0,.376-1.3A1.112,1.112,0,0,0,225.264,89.464Zm0,0" transform="translate(-200.669 -78.388)" fill="#ffc100"/><path d="M270.382,133.548a1.088,1.088,0,1,0,.375-1.3A1.113,1.113,0,0,0,270.382,133.548Zm0,0" transform="translate(-240.876 -117.674)" fill="#ffc100"/><path d="M241.568,39.7a1.089,1.089,0,1,0-.413-1.291A1.111,1.111,0,0,0,241.568,39.7Zm0,0" transform="translate(-214.841 -33.602)" fill="#ffc100"/></g></g></svg>