<svg xmlns="http://www.w3.org/2000/svg" width="63.72" height="63.72" viewBox="0 0 63.72 63.72"><g transform="translate(0 0)" fill="#f5c6c6"><path d="M 31.86006355285645 63.22021865844727 C 27.62626266479492 63.22021865844727 23.51937294006348 62.39112854003906 19.65347290039062 60.75598907470703 C 15.91919326782227 59.17652893066406 12.56537342071533 56.91527557373047 9.685153961181641 54.03505706787109 C 6.804943561553955 51.15483856201172 4.543693542480469 47.80100631713867 2.964223623275757 44.06672668457031 C 1.329083561897278 40.2008171081543 0.5000035762786865 36.09391784667969 0.5000035762786865 31.860107421875 C 0.5000035762786865 27.62629699707031 1.329083561897278 23.5193977355957 2.964223623275757 19.65348815917969 C 4.543693542480469 15.91920757293701 6.804943561553955 12.5653772354126 9.685153961181641 9.685157775878906 C 12.56537342071533 6.804947376251221 15.91919326782227 4.543697357177734 19.65347290039062 2.964227437973022 C 23.51937294006348 1.329087376594543 27.62626266479492 0.4999974071979523 31.86006355285645 0.4999974071979523 C 36.09386444091797 0.4999974071979523 40.20076370239258 1.329087376594543 44.0666618347168 2.964227437973022 C 47.80093383789062 4.543697357177734 51.15476226806641 6.804937362670898 54.03497314453125 9.685157775878906 C 56.91519165039062 12.5653772354126 59.17643356323242 15.91920757293701 60.75590515136719 19.65348815917969 C 62.39104461669922 23.5193977355957 63.22012329101562 27.62629699707031 63.22012329101562 31.860107421875 C 63.22012329101562 36.09391784667969 62.39104461669922 40.2008171081543 60.75590515136719 44.06672668457031 C 59.17643356323242 47.80100631713867 56.91519165039062 51.15483856201172 54.03497314453125 54.03505706787109 C 51.15476226806641 56.91527557373047 47.80093383789062 59.17652893066406 44.0666618347168 60.75598907470703 C 40.20076370239258 62.39112854003906 36.09386444091797 63.22021865844727 31.86006355285645 63.22021865844727 Z" stroke="none"/><path d="M 31.86006355285645 0.9999961853027344 C 27.69354248046875 0.9999961853027344 23.65218353271484 1.8157958984375 19.84824371337891 3.424728393554688 C 16.1735725402832 4.978988647460938 12.87316513061523 7.204257965087891 10.03870391845703 10.03871917724609 C 7.204254150390625 12.87317657470703 4.978984832763672 16.17358779907227 3.424732208251953 19.8482666015625 C 1.815803527832031 23.65220642089844 1.000003814697266 27.69357681274414 1.000003814697266 31.860107421875 C 1.000003814697266 36.02663803100586 1.815803527832031 40.06800842285156 3.424732208251953 43.8719482421875 C 4.978984832763672 47.54662704467773 7.204254150390625 50.84703826904297 10.03870391845703 53.6815071105957 C 12.87316513061523 56.51596832275391 16.1735725402832 58.74122619628906 19.84824371337891 60.29548645019531 C 23.65218353271484 61.9044189453125 27.69354248046875 62.72021865844727 31.86006355285645 62.72021865844727 C 36.02658081054688 62.72021865844727 40.06794357299805 61.9044189453125 43.87188339233398 60.29548645019531 C 47.54656219482422 58.74122619628906 50.84696197509766 56.51596832275391 53.68142318725586 53.6815071105957 C 56.51588439941406 50.8470458984375 58.74114227294922 47.54663848876953 60.29539489746094 43.8719482421875 C 61.90432357788086 40.06800842285156 62.72012329101562 36.02663803100586 62.72012329101562 31.860107421875 C 62.72012329101562 27.69357681274414 61.90432357788086 23.65220642089844 60.29539489746094 19.8482666015625 C 58.74114227294922 16.17358779907227 56.51588439941406 12.87317657470703 53.68142318725586 10.03871917724609 C 50.84696197509766 7.204257965087891 47.54656219482422 4.978988647460938 43.87188339233398 3.424728393554688 C 40.06794357299805 1.8157958984375 36.02658081054688 0.9999961853027344 31.86006355285645 0.9999961853027344 M 31.86006355285645 -3.814697265625e-06 C 49.45589447021484 -3.814697265625e-06 63.72012329101562 14.26425552368164 63.72012329101562 31.860107421875 C 63.72012329101562 49.45596694946289 49.45589447021484 63.72021865844727 31.86006355285645 63.72021865844727 C 14.26424407958984 63.72021865844727 3.814697265625e-06 49.45596694946289 3.814697265625e-06 31.860107421875 C 3.814697265625e-06 14.26425552368164 14.26424407958984 -3.814697265625e-06 31.86006355285645 -3.814697265625e-06 Z" stroke="none" fill="#fff"/></g><text transform="translate(31 36)" fill="#626262" font-size="12" font-family="Avenir-Black, Avenir" font-weight="800" letter-spacing="0.15em"><tspan x="-21.48" y="0">M &amp; C</tspan></text></svg>